<svg id="PRINT_2" data-name="PRINT 2" xmlns="http://www.w3.org/2000/svg" xmlns:xlink="http://www.w3.org/1999/xlink" viewBox="0 0 153.01 242.65"><defs><style>.cls-1{fill:none;}.cls-2{clip-path:url(#clip-path);}.cls-3{fill:#e7e6e1;}.cls-4{opacity:0.1;}.cls-5{fill:#111;}.cls-6{opacity:0.3;}</style><clipPath id="clip-path"><rect class="cls-1" x="-13.49" y="-14.17" width="180" height="270.99"/></clipPath></defs><g class="cls-2"><rect class="cls-3" x="-13.18" y="-14.17" width="180" height="270.99"/><g class="cls-4"><path class="cls-5" d="M47.83,137C61.13,118.56,70.08,91.25,72.38,62,74.53,34.89,70.8,10,62.42-4.68c-24.76-43.2-57.8-34.43-114-15.21-4.42,1.51-8.78,3.05-13,4.53C-89.9-6.47-111.72,1.2-131.71-.76c-21.91-2.15-39.18-16.08-54.36-43.86-9.4-17.22-22.53-25.34-39-24.13-35.07,2.59-74,47.1-74.73,47.94C-329,10.83-343.72,36.33-343.4,55A28.18,28.18,0,0,0-333,76.88,49.76,49.76,0,0,0-321.48,84c6.57,3,17.17,1.41,28.4-.32,22.45-3.46,47.9-7.38,53.65,22.37,3.36,17.41,12.7,28.87,27,33.14,17.55,5.24,41.95-.51,65.29-15.39,7.8-5,14.44-7.89,20.34-9.23,1,.22,2,.46,3,.7l3.74,1q3.14,1,6.36,2c1.63.6,3.28,1.22,5,1.88s3.08,1.31,4.65,2c1.4.66,2.83,1.35,4.27,2l4.06,2.15,1.49.85,2.33,1.33,3.64,2.22,3.42,2.22c1.09.75,2.2,1.5,3.34,2.26s2.09,1.5,3.16,2.25,2,1.51,3.08,2.26C-61,151-42.4,162-12.32,165.24,11.79,167.8,32.59,158,47.83,137ZM-56.69,120c7.81-4.65,13.3-14.72,14-25.65a32,32,0,0,0-6.57-22c-5.65-7.21-14.4-11.91-26-14a148.88,148.88,0,0,0-43.54-1.74l-2.73.27c-15.8,1.59-27.22,2.74-46.6-10.65a130,130,0,0,0-15.32-8.62c-3.78-1.91-7.64-3.86-11.63-6.14l-.47-.34c2,.8,4,1.55,6,2.29,7.26,2.67,14.12,5.2,20.14,10C-149.87,59-137.33,57.28-120,54.92l3.61-.49c13.79-1.81,26.89-2.12,46,2.25,16.08,3.68,32.64,15.62,30.89,38.13-.85,11-6.35,21.11-14,25.74A17.43,17.43,0,0,1-68,122.43,17.68,17.68,0,0,0-56.69,120Zm-14.21.93a16.19,16.19,0,0,0,10.68-2.22c7.57-4.43,13-14.39,13.45-24.79.3-6.73-1.23-29-33.81-33.13a207.76,207.76,0,0,0-41.68-1.18c-19.93,1.09-30.7,1.68-67.07-24,1.81.94,3.61,1.85,5.38,2.75a131.05,131.05,0,0,1,15.26,8.58c19.55,13.51,31.07,12.35,47,10.74l2.73-.27A146.78,146.78,0,0,1-75.6,59.11C-59.19,62-42.14,72.85-43.49,94.47c-.66,10.6-5.93,20.34-13.43,24.8A16.36,16.36,0,0,1-70.9,120.88Zm17.7.35c8-4.82,13.66-15.25,14.54-26.58a35.28,35.28,0,0,0-6.07-23.23c-5.44-7.72-13.93-13-25.24-15.53-19.24-4.4-32.41-4.08-46.27-2.26l-3.62.48c-17.2,2.35-29.63,4-49-11.41-6.08-4.86-13-7.41-20.28-10.1-3.11-1.14-6.28-2.32-9.44-3.7l-.39-.28-1.05-.77c2,.56,4,1.06,6,1.55,8.23,2,16.76,4.12,23.87,10.48q.72.65,1.44,1.26c19,16.25,33.06,13.93,50.73,11,1.36-.23,2.75-.46,4.17-.68C-98.93,49.14-85,48.7-65,54.25c24,6.69,31.1,25.48,29.69,40.83C-36.42,106.52-42.15,117-50,121.82a18.62,18.62,0,0,1-15.71,2A18.27,18.27,0,0,0-53.2,121.23Zm3.47,1.26c8.12-5,14.06-15.8,15.14-27.55a38.59,38.59,0,0,0-5.59-24.47c-5.22-8.21-13.46-13.93-24.49-17-20-5.57-34.08-5.14-49-2.77-1.42.22-2.81.45-4.17.68-17.95,3-32.12,5.31-51.67-12.16-7.21-6.44-15.8-8.56-24.1-10.6-2.83-.69-5.7-1.4-8.52-2.29l-2.08-1.43c2,.34,4,.62,6,.9,9.44,1.3,19.21,2.64,27.37,10.59,20.09,19.58,35.51,16.68,55,13l4.6-.86c16.47-3,30.8-3.47,51.4,3.28,23.56,7.72,30.16,27.52,28.48,43.48-1.27,12.06-7.11,22.71-15.24,27.78a19.85,19.85,0,0,1-16.83,2.17A19.34,19.34,0,0,0-49.73,122.49Zm3.45,1.26c8.42-5.25,14.45-16.21,15.76-28.59,1.71-16.2-5-36.3-28.85-44.12-20.72-6.79-35.15-6.29-51.72-3.29l-4.6.85c-19.34,3.63-34.62,6.5-54.5-12.88-8.28-8.07-18.15-9.42-27.68-10.73-2.81-.38-5.54-.76-8.15-1.3l-.24-.15c2,.13,4,.17,6.09.22,9.55.2,20.37.43,28.68,9.12,20.5,21.49,37,18.07,58,13.74l5-1c18.2-3.64,32.89-4.18,54.07,3.79,23.11,8.69,29.25,29.5,27.29,46.07-1.47,12.54-7.56,23.6-15.89,28.88a21.25,21.25,0,0,1-18.08,2.34A20.55,20.55,0,0,0-46.28,123.75Zm3.44,1.25c8.6-5.45,14.89-16.82,16.4-29.66,2-16.82-4.24-37.92-27.63-46.72-21.32-8-36.11-7.47-54.44-3.81l-5,1c-20.73,4.29-37.1,7.68-57.4-13.58-8.44-8.86-19.4-9.09-29.07-9.29-2.69-.06-5.33-.12-7.8-.37-1-.6-1.92-1.19-2.87-1.75,2,0,4.17-.16,6.41-.3,10.69-.67,22.8-1.42,32,8.85,21,23.37,38.59,19.43,60.91,14.45l5.3-1.17C-86.4,38.43-70.83,37.78-49.22,47c22.65,9.62,28.34,31.43,26.11,48.63-1.69,13-8,24.53-16.57,30a22.45,22.45,0,0,1-20,2.36A21.84,21.84,0,0,0-42.84,125Zm3.42,1.25c8.81-5.66,15.35-17.45,17.08-30.78,2.26-17.44-3.5-39.54-26.43-49.28-21.76-9.24-37.44-8.58-57.16-4.32L-111.24,43c-11.28,2.52-21,4.69-30.72,3.39-10.65-1.43-20.06-7-29.6-17.68-9.38-10.47-21.66-9.7-32.48-9-2.85.18-5.54.34-8,.29-1.07-.62-2.14-1.2-3.19-1.75,2.17-.17,4.51-.49,7-.82C-197,15.89-183,14-172.89,25.88-151.43,51.1-132.71,46.66-109,41l5.63-1.32c21.5-4.95,37.34-5.64,59.44,4.8s27.46,33.32,25,51.16c-1.94,13.72-8.4,25.37-17.29,31.16a23.76,23.76,0,0,1-20.84,2.71A23.09,23.09,0,0,0-39.42,126.25Zm-172.28-105-.78-.44h0ZM-214,19.91l-.16,0c-1-.54-2.06-1.05-3-1.53h.27C-216,18.86-215,19.38-214,19.91ZM-36,127.49c9.16-6,15.81-17.89,17.78-31.91C-15.68,77.5-21,54.4-43.47,43.77-65.73,33.25-81.69,34-103.34,38.93L-109,40.25c-23.48,5.57-42,10-63.27-15-10.32-12.12-24.51-10.18-35.91-8.62-3,.42-5.89.81-8.45.91-1.19-.6-2.36-1.15-3.52-1.67,2.38-.3,5-.84,7.77-1.4,12.36-2.54,27.73-5.69,38.77,7.91,22,27.06,41.78,22.12,66.84,15.86l6-1.47c23.52-5.69,39.58-6.43,62.13,5.32,21.84,11.38,26.46,36,23.79,53.67-2.15,14.23-8.89,26.31-18,32.33-6.76,4.46-14.41,5.4-22.43,2.85A24.45,24.45,0,0,0-36,127.49ZM-263.53,21.7l1.93-.81,0,0C-262.29,21.18-262.92,21.43-263.53,21.7Zm-2.57,3.22a18.31,18.31,0,0,0-3.61,6.38c-2.61,7.59,1.2,17,10.32,26.32-9.85-9.37-13.67-17.11-11.94-23.91A15.69,15.69,0,0,1-266.1,24.92Zm-9.68,4.24c-3,3.64-3.49,7.35-3.39,11.81.16,7.31,7.86,12.9,17.62,20l4.15,3c-2.48-1.71-4.9-3.29-7.19-4.78-8.63-5.61-15.45-10-16.17-16.13-.45-3.86-.65-8,2.29-12.11,3.23-4.53,10-8.8,20.9-13a22.66,22.66,0,0,0-2.17,1.44C-267.64,22.31-272.83,25.51-275.78,29.16ZM-261,60.24c-9.63-7-17.23-12.51-17.39-19.51-.09-4.25.41-7.77,3.15-11.16,2.1-2.59,5.51-5,10.35-7.25a24.75,24.75,0,0,0-7.7,5.32c-3.27,3.54-4,7.5-4.21,10.91-.61,8.41,8,15.38,19,24Zm-15-21.85c.25-3.4.89-7,3.92-10.28A19,19,0,0,1-268.33,25a14.13,14.13,0,0,0-1.16,1,16.88,16.88,0,0,0-5,10.1c-1.39,8.46,6,16.4,16.23,25C-268.66,52.91-276.6,46.21-276,38.39Zm2.36-2.34c.7-4.26,2.08-7.1,4.61-9.49a15.59,15.59,0,0,1,1.62-1.34,17.34,17.34,0,0,0-4.63,8.5c-2.23,8.74,4.51,17.71,13.11,25.59C-268.37,51.28-275,43.81-273.68,36.05Zm4.7-4.68a16.86,16.86,0,0,1,4-6.64,22.86,22.86,0,0,0-2.33,4.15c-4,9.25,1,20,8.92,28.48C-267.63,48.08-271.53,38.79-269,31.37Zm2.34-2.34a22,22,0,0,1,4-6.19A22.33,22.33,0,0,0-265,26.47c-4.22,8.17-1.84,19.07,5.26,28.19C-267,46-269.82,36.41-266.64,29Zm4.68-5.91c-.21.31-.43.62-.62.94-4.75,7.9-3.56,18.73,2,27.71-5.61-8.42-7.34-18-3.68-25.08A21.4,21.4,0,0,1-262,23.12Zm0,1.22c.32-.52.66-1,1-1.51-5.07,8.6-3.88,20.67,1.92,29.81C-265.2,43.63-266.79,32.4-262,24.34Zm2.35-2.35,0,0a26.1,26.1,0,0,0-2.76,7.5A32.44,32.44,0,0,0-260.09,49C-264.43,40.16-264.72,29.47-259.61,22Zm2.77-2.87q6.54-2.24,15.31-4.32c1.35,0,2.77.11,4.27.27A146.05,146.05,0,0,0-257,19.34Zm23-6.8-1.23.26a38.43,38.43,0,0,0-5.33-.41l1.44-.42A36.29,36.29,0,0,1-233.88,12.32Zm-2.88-1.2.22-.07.19.11Zm5.58,3.07-.32,0c-1.46-.32-2.86-.57-4.19-.75l.43-.09C-234,13.58-232.61,13.85-231.18,14.19ZM-233,12.92l.22,0,.22.13Zm-4.52.19-.51.12a34.8,34.8,0,0,0-5.87,0l.41-.13A33,33,0,0,1-237.57,13.11Zm-5.93-.8a25.79,25.79,0,0,0-5.83,1.2,23,23,0,0,1,7.58-1.73Zm-1.71,2.61q-5.89,1.5-10.64,3.06l.09-.08c.57-.32,1.16-.63,1.8-.92.38-.18.79-.35,1.22-.52A30.93,30.93,0,0,1-245.21,14.92Zm10.68.53c1,.16,2.09.37,3.18.61-6.05.39-11.34,1-16,1.67l-.31,0Q-241.75,16.51-234.53,15.45Zm5.81,1.25c.78.21,1.58.43,2.39.68q-6.12-.18-11.29,0Q-233.43,17-228.72,16.7Zm-.44-2,.08,0,.26.17-.59-.16Zm.56-.73c.35,0,.72,0,1.1,0,1.25.41,2.5.87,3.75,1.36l-.95-.05c-1.34-.48-2.63-.9-3.87-1.25Zm5.08,4.31c.5.17,1,.34,1.52.53-2.15-.26-4.22-.49-6.21-.67C-226.69,18.18-225.13,18.22-223.52,18.29Zm1.05-2.21.54,0c1.11.47,2.21,1,3.3,1.5l-.41,0C-220.22,17-221.36,16.52-222.47,16.08ZM-32.6,128.74c9.38-6.19,16.3-18.55,18.5-33.08,2.7-17.86-2-42.8-24.07-54.31C-60.89,29.51-77.07,30.26-100.76,36l-6,1.47c-24.84,6.2-44.45,11.1-66.22-15.7-11.25-13.85-26.84-10.65-39.36-8.09a79.18,79.18,0,0,1-9.31,1.56c-1.32-.56-2.61-1.06-3.89-1.51a89.51,89.51,0,0,0,9-2.11c12.76-3.41,30.23-8.08,42.2,7.27A76.68,76.68,0,0,0-163.81,30c18.71,16,37.05,11.21,59.33,5.41l6.28-1.62c25.08-6.34,42-7.18,64.82,5.83,12.81,7.29,21,20.52,23,37.25,1.84,15-1.55,30.69-9,42-8.71,13.14-21.06,17.81-34.52,13.33A25.91,25.91,0,0,0-32.6,128.74Zm-3.61,4.67c6.69-2.17,12.71-7.07,17.42-14.16,7.63-11.52,11.08-27.46,9.22-42.64C-11.64,59.69-19.92,46.3-32.88,38.92c-23-13.1-40-12.26-65.3-5.87l-6.29,1.62c-26.18,6.82-46.86,12.21-69.16-16.4-12.19-15.63-29.9-10.9-42.84-7.44a64,64,0,0,1-10.77,2.3q-2.46-.78-4.78-1.27c3-.28,6.91-1.54,11.38-3,13.83-4.5,32.77-10.65,45.66,6.51,23.08,30.7,45,24.78,72.76,17.28l6.61-1.77c27.25-7.15,44.3-8,67.51,6.34C-1.67,53.58.3,95.79-15.7,119.83c-9.17,13.79-22.36,18.66-36.71,13.79A27.8,27.8,0,0,0-36.21,133.41Zm21.11-13.25c7.89-11.86,11.62-28.43,10-44.3C-6.95,58.31-14.92,44.33-27.58,36.5-51,22-68.15,22.91-95.59,30.11c-2.25.58-4.45,1.18-6.62,1.77-27.52,7.43-49.26,13.3-72.11-17.1C-187.46-2.7-206.65,3.54-220.68,8.1c-7.12,2.31-12.75,4.14-15.42,2.17l-.11-.09-.17.05L-239,11a23.89,23.89,0,0,0-12.7,2.91,19.4,19.4,0,0,0-3.11,2.2c-12.76,4.71-20.6,9.43-24.21,14.51-3.16,4.44-3,8.75-2.49,12.78.41,3.42,2.59,6.3,5.88,9.12a106.12,106.12,0,0,0,10.53,7.42c2.63,1.71,5.45,3.53,8.3,5.55C-260.48,63-264.13,61-267.53,59c-8.06-4.57-14.42-8.18-15.59-13.6-.93-4.3-1.53-8.55,1.33-13.13,4.67-7.46,17.87-14.79,41.55-23.07,2.71,1.81,8.32-.32,15.4-3,14.91-5.64,35.34-13.37,49.17,5.66,23.63,32.5,46.61,26.1,75.7,18,2.28-.63,4.6-1.28,7-1.91,28.91-7.83,46.79-8.81,70.2,6.84C3.3,52.24,4.46,96.09-12,120.74c-9.74,14.59-24,19.62-39.37,14.11C-37.22,139.06-24.24,133.9-15.1,120.16Zm3.7.91c16.67-25,15.53-69.34-10.88-87C-45.88,18.3-63.89,19.28-93,27.17c-2.36.63-4.68,1.28-6.95,1.92-28.85,8-51.64,14.39-75-17.8C-189.09-8.08-210.65.07-224.92,5.47c-7,2.64-12.5,4.73-14.9,3l-.12-.09-.18.06c-24,8.38-37.46,15.88-42.28,23.59-3.06,4.9-2.45,9.32-1.48,13.8.55,2.55,2.17,4.7,4.52,6.72,2.87,2.45,6.84,4.7,11.33,7.25,3.53,2,7.33,4.18,11.14,6.73a138.55,138.55,0,0,0-13.18-7.06c-7.75-3.77-13.86-6.75-15.42-11.66-1.5-4.74-2.51-9.08.28-14.17,4.41-8,17.52-16.36,41.27-26.2,2.48,1.59,7.95-.76,14.85-3.72,15.11-6.47,37.94-16.26,52.72,4.7a79.56,79.56,0,0,0,13,14.69c20,17.08,40.65,11.16,65.62,4,2.39-.68,4.82-1.38,7.29-2.07,31.24-8.69,49.17-9.7,72.9,7.36C-5.58,41,1.72,55.94,3,74.56c1.2,17.11-3,34.71-11.33,47.09-10.47,15.64-25.4,20.73-42.14,14.43C-35.18,141-21.13,135.65-11.4,121.07Zm3.7.91C9.43,96.41,9.1,50.43-17,31.65c-23.77-17.09-42.62-16-73.43-7.42q-3.72,1-7.3,2.07c-30.17,8.64-54,15.47-78-18.51C-190.75-13.54-213.89-3.62-229.2,3-236,5.87-241.4,8.18-243.53,6.6l-.14-.1-.19.08c-24.1,10-37.45,18.49-42,26.77-3,5.42-1.87,10.11-.37,14.84a11,11,0,0,0,3.58,5c2.91,2.48,7.18,4.57,12.11,7a126.71,126.71,0,0,1,14.61,8,108.23,108.23,0,0,0-16.4-7.93c-7.62-3.12-13.63-5.6-15.53-10.12-2.09-5-3.59-9.56-.86-15.23,4.09-8.51,17.53-18.1,41.07-29.32,2.26,1.39,7.33-1,14.28-4.32,16.15-7.69,40.56-19.31,56.31,3.63,24.78,36.09,49.85,28.73,81.58,19.4,2.51-.73,5-1.48,7.64-2.22,33-9.42,51.74-10.52,75.59,7.87C-.74,38.8,6.47,54.77,7.52,73.74c1,17.83-3.54,36.08-12.11,48.83-6.36,9.45-20.59,24-44.45,15l-.84-.32C-33.38,143-18.1,137.51-7.7,122ZM-249.5,60c-9.34-5.46-14.53-18.62-12.07-30.61a24.42,24.42,0,0,1,3.41-8.46c.93-.29,1.91-.56,2.94-.82a82.65,82.65,0,0,1,14.41-1.82,172.06,172.06,0,0,1,22.08,1.8c.5.2,1,.41,1.51.63a15.85,15.85,0,0,0,3.73,1.65c1,.47,1.91.95,2.89,1.47s1.94.95,2.93,1.37l.77.45c1.66,1,3.33,1.87,5,2.68q3.19,2.07,6.27,3.82c41.21,30,52.1,29.36,73.19,28.2a208.09,208.09,0,0,1,41.56,1.18c32.11,4.06,33.62,25.91,33.32,32.52-.46,10-5.64,19.67-12.89,23.92a15.3,15.3,0,0,1-13.87,1.16l-.88-.61-.25-.2c-1.1-.91-2.23-1.76-3.37-2.56l-.22-.19c-1-.87-2.06-1.67-3.13-2.42a36.91,36.91,0,0,0-3.29-2.64c-15.29-14-39.39-10.28-60.78-7-9.36,1.45-18.17,2.81-25.72,2.74a48.43,48.43,0,0,1-6.51-2.3,30.51,30.51,0,0,1-3.3-1.76c-.55-.34-1.11-.67-1.67-1l0,0c-.92-.71-1.87-1.37-2.83-2S-188.06,97.7-189,97s-1.7-1.6-2.57-2.35-1.54-1.65-2.33-2.42c-.77-.95-1.56-1.85-2.36-2.7s-1.41-1.83-2.13-2.67c-9-13.35-20.78-16.62-32.24-19.79C-236.94,65.32-243.5,63.51-249.5,60ZM-145,105.33c18.57-2.38,39.18-5,54.86,3.34-16.08-7-35.71-5-53.47-3.18-4,.4-7.83.8-11.55,1.08C-151.89,106.21-148.5,105.78-145,105.33Zm-13.75.81c4-.49,8.22-1.14,12.45-1.79,18.31-2.83,38.64-6,53.58,2.09-15.38-6.63-34.68-4.16-52.17-1.91C-149.71,105.15-154.36,105.74-158.77,106.14Zm15,.15c18.86-1.92,39.83-4.06,56.31,4.66-16.87-7.4-36.87-5.9-54.95-4.53-3.18.24-6.3.47-9.32.65C-149.13,106.84-146.47,106.57-143.77,106.29Zm1.2.93c19.13-1.44,40.43-3,57.78,6-17.71-7.78-38.1-6.78-56.49-5.89q-3.47.18-6.79.32Zm1.11.9c19.47-1,41.17-2,59.5,7.41-18.7-8.22-39.54-7.77-58.32-7.36l-3.87.08ZM-78.87,118c-19.9-8.78-41.33-8.89-60.6-9h-.45C-120.16,108.53-98.16,108.15-78.87,118Zm2.94,2.36c-19.95-8.72-40.58-9.88-59.4-10.52C-116.16,110-95.19,110.74-75.93,120.32Zm3.31,2.49c-19.86-8.61-39.61-10.8-57.81-12C-111.89,111.56-91.85,113.42-72.62,122.81ZM-190.5,99.94c.23.27.47.53.71.78h0c-.28-.26-.54-.53-.8-.81Zm.17-1.21.05,0,.37.47h0A6,6,0,0,1-190.33,98.73Zm-1.58-.68c.14.22.29.43.44.64l-.22-.07c-.17-.22-.32-.45-.48-.68Zm.44-.94.11.06.14.22-.11,0A1.76,1.76,0,0,1-191.47,97.11Zm-1.21-.33-.29-.12c-.09-.16-.19-.32-.28-.49l.31.16.15.26Zm-1-1.83-.18-.09a2.56,2.56,0,0,1-.11-.24l.16.11A1.59,1.59,0,0,1-193.72,95ZM-231,67.87c9.43,2.61,19.08,5.29,27.18,13.66-7.51-6.16-16-8.82-24.21-11.42a113.05,113.05,0,0,1-13.4-4.84,76.36,76.36,0,0,1-7.93-4.13l-.31-.21C-243.68,64.34-237.22,66.14-231,67.87ZM-241.86,66a114.85,114.85,0,0,0,13.47,4.86c9.16,2.89,18.54,5.84,26.6,13.62-7.35-5.63-15.47-8.41-23.41-11.13-5.65-1.93-11-3.76-16.08-6.55l-.74-.41c-2.35-1.28-4.78-2.61-7.13-4.13l-.06,0A78.41,78.41,0,0,0-241.86,66Zm-.66,1.13.74.41a102.54,102.54,0,0,0,16.17,6.59c8.9,3,18,6.16,26,13.32-7.16-5.08-14.94-7.89-22.56-10.62-6.76-2.42-13.14-4.72-19-8.47-1-.63-2-1.25-3-1.88-1.44-.89-2.93-1.82-4.4-2.8C-246.54,65-244.5,66.08-242.52,67.16Zm-2.15.08c1,.62,2,1.24,3,1.87,5.9,3.79,12.31,6.09,19.1,8.52,8.53,3.06,17.26,6.21,25.07,12.57-6.85-4.41-14.21-7.1-21.41-9.72-8-2.9-15.52-5.64-22.13-10.54-1.45-1.08-3-2.12-4.49-3.14-.74-.5-1.49-1-2.23-1.53C-246.74,65.94-245.69,66.6-244.67,67.24Zm-1.42.28c1.56,1,3,2,4.48,3.12,6.67,4.94,14.24,7.7,22.26,10.62,7.82,2.84,15.82,5.77,23.15,10.9l.1.2c-6.25-3.48-12.86-5.84-19.32-8.16-9.35-3.34-18.17-6.5-25.52-12.7-1.82-1.53-3.7-2.89-5.69-4.33l-.58-.42C-246.83,67-246.46,67.27-246.09,67.52Zm4.57,4.66c7.43,6.26,16.29,9.43,25.68,12.8,6.87,2.46,13.9,5,20.49,8.84l.21.45a162.26,162.26,0,0,0-16.51-6.33c-10.85-3.71-21.1-7.2-29.18-14.88a66.6,66.6,0,0,0-5.34-4.45C-244.55,69.78-243,70.93-241.52,72.18Zm.09,1.54c8.16,7.75,18.46,11.27,29.37,15a153.56,153.56,0,0,1,17.53,6.81c.1.22.21.43.32.64-4.42-1.71-8.93-3.14-13.37-4.54-12.53-4-24.36-7.69-33.14-17a47.7,47.7,0,0,0-3.66-3.45l-.78-.64C-243.87,71.55-242.62,72.59-241.43,73.72Zm.09,1.54a41,41,0,0,0,3.25,3.09c8.43,7.21,19,10.55,30.11,14.06,4.79,1.52,9.68,3.06,14.42,5,.16.27.31.55.49.81-3.37-1.07-6.78-2-10.14-3-13.73-3.87-27.94-7.88-37.41-19a40.35,40.35,0,0,0-2.85-3C-242.74,73.85-242,74.53-241.34,75.26Zm0,1.41.12.12a39,39,0,0,0,4.54,4.55c9.24,7.9,21.35,11.32,33.12,14.64,3.77,1.06,7.6,2.14,11.36,3.38.25.32.52.63.79.93-2.35-.6-4.71-1.17-7.05-1.74-15.68-3.77-31.9-7.67-42-20.82C-240.79,77.37-241.08,77-241.37,76.67Zm.8,2.4a40.44,40.44,0,0,0,5.15,5.3c10,8.59,23.5,11.83,36.57,15,2.85.69,5.74,1.39,8.6,2.15.4.35.81.68,1.23,1-1.44-.29-2.9-.57-4.38-.85-17.82-3.45-36.25-7-47-22.35Zm46.84,23.36c2.25.44,4.45.87,6.61,1.32a20.39,20.39,0,0,0,2.1,1l-2.86-.41c-19.91-2.8-40.48-5.7-52-22.82C-228.82,95.64-211,99.09-193.73,102.43Zm5.55,2.73c4.53.64,8.8,1.24,13,2l.59.11c-2.34-.23-4.72-.42-7.21-.63-21.25-1.76-45.27-3.76-57.54-23C-227.54,99.61-206.68,102.56-188.18,105.16Zm6.07,2.29c3,.25,5.84.49,8.64.77l1.63.16.89.09h-.53l-3.68-.08c-22.63-.44-50.64-1-63.82-22.52C-226.29,103.78-202.89,105.73-182.11,107.45Zm-49.63-11.7c14.77,12.62,37.44,13.07,56.36,13.44l3.67.08c1.47,0,2.94.08,4.4.14q-1.23,0-2.46.09c-21.86,1.08-54.52,2.68-68.77-21.34A38.57,38.57,0,0,0-231.74,95.75Zm.68,2.71c16.44,14,42.61,12.76,61.11,11.85q3.13-.15,6.22-.17c-1.43.11-2.87.24-4.33.41-27.34,3.15-56.75,3.09-70-20A38.64,38.64,0,0,0-231.06,98.46Zm62.87,12.89c2.7-.31,5.34-.51,8-.61-2,.21-4,.49-6.12.86-37.26,6.57-60.69.41-71.41-18.85C-223.89,114.45-195,114.45-168.19,111.35Zm1.76,1a89.35,89.35,0,0,1,9.34-1.14c-2.46.34-5,.79-7.54,1.4-26,6.06-58.87,7.59-72.66-17.4C-226,113.18-202.7,118.79-166.43,112.39Zm1.76,1a78,78,0,0,1,10.72-1.74,74.82,74.82,0,0,0-9,2c-11.76,3.36-29.05,6.79-44.62,4-13.66-2.45-23.51-9.21-29.39-20.1C-222.41,121-190.22,119.39-164.67,113.43Zm-43.18,5.08c15.69,2.8,33.1-.65,44.94-4A73.27,73.27,0,0,1-150.73,112a73.62,73.62,0,0,0-10.47,2.71c-11.91,4-29.54,8.19-45.87,5.44-13.75-2.31-23.63-9.1-29.5-20.19C-230.52,110-220.9,116.17-207.85,118.51Zm-28.52-16.35c6,10.28,15.74,16.61,29,18.83,16.48,2.77,34.24-1.45,46.24-5.48a70.17,70.17,0,0,1,13.42-3.15,71.5,71.5,0,0,0-11.75,3.44C-188.57,126.91-222.77,128.48-236.37,102.16Zm77,14.39a66.91,66.91,0,0,1,14.71-3.9,69.89,69.89,0,0,0-13.07,4.2c-28.4,12.08-64.38,15.19-78.34-12.39C-221.74,129.25-188.11,127.52-159.4,116.55Zm1.75,1a65.67,65.67,0,0,1,15.83-4.68,69.85,69.85,0,0,0-14.21,5c-17.73,8.26-35.38,11.72-49.7,9.74-13.88-1.93-24.1-9-30-20.65C-220.89,132.75-185.62,129.49-157.65,117.59ZM-206,128.44c14.46,2,32.26-1.48,50.14-9.81a64,64,0,0,1,17-5.47A68.41,68.41,0,0,0-154.31,119c-17.82,9-36.4,13.06-51,11.17-14.1-1.83-24.4-9-30.28-21C-229.49,120-219.45,126.57-206,128.44Zm.45,2.48c14.72,1.91,33.47-2.19,51.44-11.26a63.37,63.37,0,0,1,18-6.26,68.61,68.61,0,0,0-16.47,6.6c-22.21,12-45.08,16-61.19,10.64a35.62,35.62,0,0,1-21.69-19.45C-229.41,122.39-219.25,129.15-205.58,130.92Zm-8.6.49c16.28,5.41,39.38,1.41,61.79-10.71a63,63,0,0,1,19.06-7.09,68.87,68.87,0,0,0-17.53,7.45c-22.53,12.94-45.85,17.5-62.39,12.19-10.15-3.26-17.54-9.92-22.08-19.85A35.86,35.86,0,0,0-214.18,131.41Zm.53,2.62c16.73,5.37,40.28.77,63-12.29,7.59-4.37,14.14-6.85,20-7.89a69,69,0,0,0-18.51,8.26c-22.8,13.84-46.54,19-63.49,13.73a35.12,35.12,0,0,1-22-19A35.53,35.53,0,0,0-213.65,134Zm66.24-10.87c-23.12,14.74-47.29,20.45-64.64,15.27-10.07-3-17.62-9.66-22.34-19.46A35.83,35.83,0,0,0-213,136.62c17.14,5.31,41.12.13,64.13-13.84,7.75-4.7,14.38-7.41,20.29-8.59l.1,0C-134,115.74-140.25,118.59-147.41,123.16Zm35.19-9.55a29.37,29.37,0,0,0-5.19-.73c-.32,0-.64-.07-1-.1q-3.41-.42-6.74-.77c17.78,1.41,36.84,4.24,55.9,13.32A171.64,171.64,0,0,0-112.22,113.61Zm6.47,2.25c-.43-.19-.86-.39-1.29-.57a163.69,163.69,0,0,1,41.81,12.78A209.26,209.26,0,0,0-105.75,115.86Zm3.61,1.88-.75-.42a204.07,204.07,0,0,1,41.36,13.31A270.81,270.81,0,0,0-102.14,117.74Zm2.34,1.44a268.86,268.86,0,0,1,42.69,14.25,383.77,383.77,0,0,0-42.25-14Zm2.58,1.75a395.21,395.21,0,0,1,45.1,15.44h0c-16.57-6.2-31.3-11.22-44.78-15.2Zm2.53,1.88-.18-.14c13.65,4.11,28.58,9.27,45.41,15.62,18.05,6.82,34.2,1.36,45.46-15.39C4.7,110,9.29,91.5,8.29,73.48c-1.06-19.15-8.36-35.29-20-44.25C-35.74,10.7-54.62,11.8-87.84,21.28c-2.59.74-5.14,1.49-7.65,2.23C-127,32.76-151.84,40.06-176.39,4.3-192.42-19-217.15-7.27-233.52.52c-6.61,3.15-11.84,5.64-13.73,4.24l-.14-.11-.21.1c-24.23,11.53-37.52,21.05-41.8,30-2.89,6-1.34,10.75.82,15.9a10.11,10.11,0,0,0,2.89,3.78c3,2.54,7.55,4.42,12.92,6.63a105.51,105.51,0,0,1,17,8.28c-6.25-3.74-12.88-6-18.57-8C-282,58.75-288,56.7-290.23,52.48c-2.72-5.19-4.75-10-2.1-16.3,3.85-9.14,17.26-19.75,41-32.44,2.07,1.2,6.95-1.35,13.65-4.83,16.16-8.42,43.22-22.51,59.95,2.47,25.36,37.87,51.46,30,84.51,20.12,2.62-.79,5.28-1.59,8-2.38C-50.47,9-30.91,7.77-7,27.49,4.29,36.77,11.21,53.32,12,72.91c.77,18.56-4,37.47-12.9,50.58-11.23,16.63-27.39,22.29-45.52,16l-10.37-3.63C-70.81,130.89-83.27,126.51-94.69,122.81Zm2,1.57h0c10.75,3.53,22.44,7.62,35.5,12.21l10.37,3.63c25,8.72,39.86-6.53,46.52-16.4,9-13.29,13.86-32.41,13.08-51.16C12,52.89,5,36.2-6.4,26.81-30.54,6.92-50.23,8.12-85.25,18.34l-8,2.38C-126,30.57-151.94,38.34-177.08.81c-17-25.41-44.42-11.14-60.8-2.61-6.39,3.33-11.43,6-13.09,4.73l-.15-.12-.22.12C-275.42,15.79-289.06,26.63-293,36c-3,7.2-.19,12.61,2.09,17a9.68,9.68,0,0,0,2.33,2.85c3.05,2.6,8,4.28,13.81,6.27s12.69,4.33,19.07,8.26c-6.81-3.94-14.22-6-20.56-7.74-7.4-2-13.8-3.82-16.32-7.81-3.38-5.34-6-10.34-3.4-17.34,3.59-9.8,17-21.44,40.94-35.58,1.88,1,6.34-1.5,13-5.24,17.16-9.68,45.89-25.88,63.62,1.21C-152.5,37.54-125.36,29.23-91,18.71c2.74-.84,5.52-1.69,8.35-2.53,37.33-11.11,56.84-12.34,81,8.88,11,9.67,17.65,26.8,18.23,47,.55,19.3-4.58,38.87-13.71,52.35-11.48,16.93-28,23-46.59,16.94-14.91-4.82-28-9.49-39.47-13.61C-86.48,126.59-89.62,125.46-92.68,124.38Zm4.14,2.39,4.89,1.75c11.52,4.13,24.58,8.8,39.49,13.62,18.93,6.12,35.83,0,47.58-17.38,9.26-13.66,14.45-33.45,13.89-52.93C16.73,51.45,10,34.16-1.1,24.39-13.28,13.69-24.63,8.52-37.85,7.66-50.66,6.83-65,10.15-82.67,15.4L-91,17.94c-34.09,10.44-61,18.68-86.74-20.63-18-27.54-47.13-11.13-64.51-1.33-6.13,3.45-11,6.17-12.4,5.11l-.17-.12-.22.13C-279.4,15.44-293,27.31-296.72,37.4c-2.91,8,.76,13.76,3.44,18a9.29,9.29,0,0,0,1.82,2.06c3.23,2.76,8.68,4.27,14.81,6,6.55,1.82,14.23,4,21.21,8.17-7.37-4.16-15.59-6-22.6-7.51-7.57-1.66-14.11-3.09-16.93-6.89-3.91-5.26-7.22-10.64-4.76-18.37,3.32-10.49,16.73-23.16,41-38.75,1.71.84,6-1.73,12.26-5.54,17-10.28,48.62-29.41,67.36-.15a85.32,85.32,0,0,0,16,19.07c22,18.79,45.77,11.39,74.36,2.48,2.86-.89,5.76-1.8,8.72-2.69C-40.86,1.36-20.58,0,3.6,22.63c24,22.43,21.66,75.23,2.94,102.73C-5.2,142.6-22.12,149-41.11,143.29-59.79,137.7-75,132-88.54,126.77Zm4.25,2.56c12.34,4.7,26.21,9.79,42.79,14.74,19.35,5.78,36.62-.74,48.63-18.37C27.94,95.13,26.46,42.78,4.19,22-20.17-.82-40.61.5-80.08,12.46c-3,.9-5.87,1.81-8.73,2.7-35.39,11-63.34,19.73-89.65-21.34-19.06-29.74-51.07-10.37-68.27,0C-252.56-2.62-257.17.17-258.4-.74l-.17-.13-.23.15C-283.42,15.08-297,28-300.46,38.76c-2.58,8.1.82,13.62,4.83,19a9.24,9.24,0,0,0,1.39,1.48c3.37,2.87,9.22,4.15,15.85,5.6,7.3,1.6,15.91,3.5,23.48,8.06-7.94-4.48-17-6-24.79-7.31s-14.51-2.42-17.64-6.06c-4.4-5.15-8.5-10.88-6.18-19.4C-300.46,29-287,15.27-262.46-1.76c1.54.67,5.36-1.79,11.5-5.75,17.94-11.57,51.34-33.1,71.13-1.6,5.46,8.7,11,15.27,16.69,20.13,22.51,19.24,47.07,11.47,76.57,2.13,3-1,6-1.91,9.09-2.86,20-6.15,35-9.79,48.4-8.95,14,.88,25.72,6.69,38,18.86C19.4,30.65,25.5,48.94,25.61,70.38c.11,20.8-5.64,41.71-15.36,55.94-8.49,12.4-23.83,25.75-48.72,18.89A398.29,398.29,0,0,1-84.29,129.33Zm3.88,2.51A387.6,387.6,0,0,0-38.85,146c19.78,5.46,37.42-1.41,49.69-19.34C32.17,95.46,31.49,41.4,9.49,19.54-2.85,7.28-14.67,1.42-28.83.53c-13.47-.84-28.6,2.82-48.67,9-3.08,1-6.11,1.91-9.09,2.85-36.68,11.62-65.65,20.79-92.56-22-20.1-32-53.91-10.21-72.08,1.5-5.5,3.55-9.85,6.36-10.88,5.59l-.19-.13-.24.16c-24.94,17.26-38.59,31.22-41.72,42.7-2.43,8.88,1.78,14.76,6.29,20a9.25,9.25,0,0,0,1,1c3.52,3,9.8,4.06,17,5.25,7.94,1.33,17.33,2.89,25.36,7.67-8.39-4.66-18.25-5.85-26.61-6.85-8.06-1-15-1.8-18.44-5.32-5.05-5.19-9.8-11.05-7.63-20.39,2.76-11.89,16.23-26.66,41.18-45.13,1.39.5,5-1.94,10.68-5.84,9-6.14,22.54-15.42,36.44-18.9,16.56-4.14,29.52,1.15,38.51,15.73,27.74,45,57.94,35.26,96.18,23q4.65-1.48,9.46-3C-33.37-5.62-11-8.82,14.16,17.76c10.3,10.85,16.13,29.72,16,51.77-.12,21.89-6,42.94-16.22,57.75C5.28,139.9-10.4,153.59-35.83,147.13A295,295,0,0,1-80.41,131.84Zm4.19,2.71a290.94,290.94,0,0,0,40,13.37c25.89,6.58,41.88-7.41,50.74-20.3,10.3-15,16.28-36.24,16.4-58.3.13-22.22-5.76-41.24-16.16-52.2C-10.65-9.69-33.12-6.47-74.91,6.58q-4.82,1.51-9.47,3c-38,12.19-68,21.83-95.46-22.77C-201-47.51-238-22.23-255.77-10.09c-4.94,3.38-9.21,6.3-10.06,5.68l-.19-.14-.25.18c-25.31,18.71-39,33.73-41.82,45.92-2.26,9.7,2.83,15.94,7.77,21a6.63,6.63,0,0,0,.61.57c3.71,3.18,10.43,4,18.15,4.9,8.5,1,18.58,2.23,27,7.12-8.77-4.75-19.3-5.56-28.21-6.25-8.36-.64-15.59-1.21-19.31-4.62-5.45-5-11.11-11.19-9.12-21.37,2.47-12.62,16-28.44,41.34-48.35,1.17.34,4-1.65,9.81-5.84,18.46-13.33,56.87-41.06,78.83-4.84,28.34,46.73,59.55,36.56,99.08,23.7,3.22-1,6.5-2.12,9.84-3.18C-28.88-9.33-5.68-12.74,19.44,15.33,29.52,26.58,35.09,46,34.74,68.69s-6.58,44.37-17.08,59.57C8.8,141.1-7.22,155.12-33.19,149.05A240.76,240.76,0,0,1-76.22,134.55Zm2.78,2.16a239.21,239.21,0,0,0,39.9,13.13C-7.13,156,9.2,141.7,18.25,128.6c10.61-15.36,16.9-37.27,17.26-60.12S30.24,26.06,20.07,14.7C-5.26-13.61-28.63-10.19-72.32,3.64c-3.35,1.06-6.63,2.13-9.85,3.18-39.25,12.78-70.26,22.87-98.36-23.48C-190.13-32.49-204.09-38-222-33c-14.88,4.15-29,14.34-38.34,21.09-4.57,3.29-8.51,6.14-9.19,5.64l-.2-.15-.25.2C-295.71,14-309.43,30.06-312,43c-2.06,10.54,3.72,16.87,9.29,22l.24.21c3.92,3.35,11.11,3.91,19.4,4.55,9,.69,19.77,1.53,28.56,6.51-9.12-4.82-20.29-5.25-29.73-5.62-8.69-.33-16.2-.62-20.25-4-6.53-5.39-12.33-11.8-10.63-22.32C-313,31.17-299,13.81-273.56-7.27c1,.21,3.52-1.63,8.89-5.71,17.85-13.57,59.65-45.35,82.76-6.63,28.93,48.5,61.17,37.87,102,24.42q5-1.66,10.22-3.34C-24.36-13.07-.26-16.67,24.73,12.9c9.85,11.65,15.17,31.68,14.58,55-.59,23.45-7.13,45.83-17.94,61.4C12.31,142.3-4,156.66-30.55,151A205.71,205.71,0,0,1-73.44,136.71Zm42.55,15.06C-3.95,157.55,12.72,142.9,22,129.6c10.93-15.75,17.53-38.32,18.13-61.95C40.68,44.22,35.31,24,25.37,12.28.15-17.55-24.1-13.93-69.74.7-73.21,1.81-76.62,2.94-80,4-120.5,17.4-152.51,28-181.22-20.16c-23.45-39.29-65.73-7.15-83.79,6.57-3.8,2.89-7.74,5.89-8.25,5.51l-.21-.16-.26.22c-26.14,21.63-39.91,38.79-42.12,52.44-1.66,10.3,3.58,16.74,9.8,22.06l1,.87c4.18,3.44,11.78,3.73,20.59,4.07,10,.39,21.05.82,30,5.8-9.26-4.81-20.72-4.84-31.13-4.88-9.06,0-16.88,0-21.25-3.31-12.19-9.11-13-16.87-12.16-23.26,1.8-13.9,15.84-32.37,41.72-54.89.9.09,3-1.52,7.9-5.45,11.72-9.36,36.12-28.83,57.94-27.88,11.88.52,21.57,7,28.81,19.35,6.29,10.69,12.74,18.6,19.41,24.3,24.68,21.09,52.34,11.88,85.47.83,3.47-1.16,7-2.34,10.61-3.5,24.56-8,41.64-12.41,56.27-11.59,16,.89,28.58,8.15,40.86,23.52C39.51,22.35,44.7,43.5,43.9,67c-.82,24.23-7.69,47.28-18.82,63.24-13.28,19-31.6,26.84-53,22.63a180.57,180.57,0,0,1-42.23-13.75A205,205,0,0,0-30.89,151.77Zm2.65,1.92c27.46,5.4,44.47-9.57,53.9-23.09,11.25-16.12,18.18-39.36,19-63.78.8-23.67-4.44-45-14-57C18.28-5.65,5.55-13-10.61-13.87-25.35-14.7-42.5-10.23-67.15-2.24-70.76-1.07-74.3.11-77.77,1.27-119.58,15.2-152.6,26.21-181.92-23.65c-7.33-12.48-17.18-19.08-29.26-19.6-22.13-1-46.72,18.66-58.53,28.09-3.31,2.64-6.73,5.37-7.28,5.24l-.2-.16-.26.23c-26.23,22.79-40.46,41.54-42.3,55.73-.79,6-.17,13.28,9.59,21.63q1.29,1.09,2.79,2.22c4.51,3.37,12.42,3.39,21.58,3.42,10.7,0,22.49.08,31.8,5.33-9.63-5-21.83-4.71-32.91-4.39-9.44.27-17.6.51-22.29-2.69-7.47-5.09-14.94-12-13.71-24.17C-321.43,32.59-307.31,13-280.95-11c.77,0,2.47-1.4,6.84-5.07,12.17-10.18,37.49-31.38,60.71-30.69,12.45.37,22.57,7.14,30.1,20.12,6.48,11.18,13.15,19.43,20.07,25.33,25.23,21.57,53.66,12,87.7.53q5.4-1.83,11-3.67c22.11-7.25,41.76-13.17,58.28-12.28S23.06-8.18,35.3,8c9.29,12.3,14.23,34.05,13.2,58.16-1.07,25-8.25,48.75-19.72,65.09-13.56,19.31-32.25,27.45-54,23.54A163.68,163.68,0,0,1-67.1,141.49,181.64,181.64,0,0,0-28.24,153.69Zm2.66,1.92c28,5,45.31-10.27,54.94-24C40.94,115.13,48.2,91.21,49.27,66c1-24.26-3.94-46.16-13.31-58.57C23.62-8.91,10.67-16.6-6-17.5S-42.37-12.45-64.57-5.18C-68.3-4-72-2.72-75.57-1.51c-43.08,14.52-77.11,26-107-25.64-7.62-13.14-17.9-20-30.56-20.38-23.53-.7-49.05,20.66-61.31,30.93-2.92,2.44-5.68,4.75-6.25,4.82l-.18-.14-.27.24c-26.69,24.25-41,44.11-42.49,59-1,9.85,3.46,16.28,9.09,21.09a55.64,55.64,0,0,0,4.86,3.66c4.83,3.3,13.08,3.06,22.63,2.79,11.23-.33,23.62-.68,33.22,4.66-9.92-5.13-22.71-4.39-34.31-3.71-9.85.57-18.35,1.06-23.37-2.08C-319.18,69-327.8,61.85-326.83,48.7c1.13-15.38,15.32-36.08,42.19-61.52.65-.1,2-1.28,5.71-4.52,11.61-10.19,38.8-34,63.51-33.65,13,.2,23.61,7.23,31.43,20.89,6.68,11.68,13.56,20.25,20.72,26.36,25.79,22,55,12.11,89.94.22,3.69-1.26,7.52-2.56,11.39-3.84,48.18-15.93,76.7-23.19,102.52,13,9.09,12.72,13.78,35.07,12.53,59.77-1.31,25.82-8.83,50.22-20.63,66.94-13.84,19.61-32.9,28.06-55.1,24.43A149.91,149.91,0,0,1-64.17,143.8,163.73,163.73,0,0,0-25.58,155.61Zm2.65,1.93c22.54,3.68,41.9-4.92,56-24.88C45,115.78,52.56,91.19,53.88,65.19,55.14,40.34,50.42,17.84,41.25,5,29-12.18,15.82-20.24-1.39-21.13c-17-.89-37.49,5.37-60.59,13-3.87,1.28-7.7,2.58-11.4,3.84-44.35,15.09-79.38,27-109.92-26.36-7.91-13.83-18.65-21-31.9-21.16-25-.39-52.43,23.64-64.12,33.9a49.94,49.94,0,0,1-5.16,4.26l-.16-.12-.26.26c-27.18,25.71-41.55,46.69-42.7,62.36-.73,9.87,3.77,16.43,9.28,21.14a52.65,52.65,0,0,0,6.25,4.5c5.17,3.23,13.77,2.73,23.72,2.15,11.51-.67,24.2-1.39,34,3.66-10.12-4.84-23.19-3.73-35.08-2.71-9.84.84-19.13,1.64-24.49-1.45-8.2-4.73-17.53-12-16.85-26,.78-16.13,15.06-37.95,42.44-64.86.48-.14,1.5-1.06,4.5-3.82,10.94-10.06,40-36.8,66.34-36.77,13.66,0,24.69,7.3,32.8,21.66,6.87,12.16,14,21.05,21.36,27.37C-137,16.23-107.16,6-71.41-6.22c3.92-1.34,8-2.72,12.06-4.08,50-16.79,79.6-24.44,105.22,13.46,8.89,13.16,13.32,36.11,11.85,61.4-1.55,26.63-9.4,51.7-21.54,68.8C22.05,153.26,2.63,162-20,158.66a139.76,139.76,0,0,1-41.41-12.58A151.49,151.49,0,0,0-22.93,157.54Zm2.65,1.92c22.94,3.4,42.66-5.51,57-25.75C49,116.46,56.93,91.19,58.5,64.39c1.48-25.43-3-48.54-12-61.8C34.34-15.47,21-23.92,3.23-24.81c-17.4-.88-38.66,5.7-62.62,13.75C-63.49-9.7-67.54-8.32-71.45-7-117,8.59-152.91,20.88-184-34.13-192.2-48.67-203.4-56-217.28-56.07c-26.69,0-56,26.9-67,37-1.87,1.72-3.5,3.22-4,3.52l-.12-.08-.27.26c-27.68,27.18-42.12,49.29-42.91,65.7-.49,9.91,3.89,16.49,9.4,21.19a50,50,0,0,0,7.72,5.32c5.51,3.18,14.9,2.38,24.84,1.52,12.42-1.06,26.14-2.23,36.31,3.48-10.5-5.47-24.6-3.92-37.37-2.51-10.26,1.13-19.94,2.19-25.65-.85-8.09-4.32-18.81-11.8-18.43-26.82.43-16.88,14.79-39.84,42.7-68.23a23.5,23.5,0,0,0,3.19-2.91c10.13-9.81,41-39.66,69.19-40.08,14.31-.21,25.83,7.34,34.26,22.43,7.06,12.65,14.38,21.87,22,28.39,26.87,23,57.55,12.36,94.24-.31,4-1.39,8.16-2.82,12.37-4.23C-4.78-30.8,25.86-38.8,51.15.73c8.71,13.6,12.89,37.16,11.2,63-1.8,27.43-10,53.18-22.48,70.66-14.42,20.18-34.2,29.23-57.2,26.16A131,131,0,0,1-58.7,148.31,140.45,140.45,0,0,0-20.28,159.46Zm2.65,1.93c23.34,3.11,43.42-6.09,58.08-26.61,12.6-17.64,20.86-43.58,22.67-71.19,1.7-26-2.52-49.72-11.29-63.43C26.32-39.72-4.51-31.67-56.81-14c-4.2,1.41-8.35,2.85-12.37,4.24-23.92,8.26-44.58,15.4-63.58,13.5-20.83-2.09-37.33-15.23-51.92-41.36-8.53-15.27-20.22-22.91-34.76-22.7-28.57.42-59.62,30.49-69.83,40.38-1.23,1.19-3.08,2.79-3.08,2.79-28.19,28.66-42.71,51.89-43.14,69.06-.25,10,4.3,16.76,9.77,21.44a49.53,49.53,0,0,0,9,5.92c5.85,3.13,15.64,2,26,.91,12.91-1.42,27.19-3,37.61,2.78-10.75-5.52-25.4-3.58-38.67-1.82-10.68,1.42-20.77,2.77-26.82-.24-8.62-4.27-20.07-11.79-20-27.67.06-17.64,14.53-41.75,43-71.65.26-.2.73-.68,1.71-1.69,34.37-35.28,58.18-43.23,72.1-43.68,15-.49,27.05,7.32,35.79,23.21,7.26,13.09,14.79,22.62,22.65,29.33,27.51,23.52,59,12.55,96.64-.57,4.09-1.43,8.32-2.9,12.6-4.35C-.23-34.51,31.51-42.88,56.44-1.7,65,12.35,68.89,36.53,67,63c-2,28.23-10.58,54.67-23.42,72.53-14.71,20.46-34.85,29.8-58.25,27a124.63,124.63,0,0,1-41.38-12A133.05,133.05,0,0,0-17.63,161.39Zm5.59,3c-17.13-1.82-30.53-6.22-41.53-11.72A126.42,126.42,0,0,0-15,163.31c23.73,2.83,44.17-6.66,59.12-27.45,13-18,21.55-44.64,23.61-73.05,1.92-26.58-2-50.9-10.62-65.07C32-43.8.05-35.39-54.22-16.95c-4.29,1.46-8.52,2.93-12.62,4.36-24.59,8.57-45.83,16-65.32,14-21.37-2.11-38.28-15.64-53.21-42.57-8.84-16.08-21.06-24-36.31-23.49-25.51.83-53.64,24.38-72.74,44-.56.59-1.38,1.35-1.38,1.35l-.27.28c-28.72,30.15-43.31,54.51-43.37,72.42a27.09,27.09,0,0,0,10,21.64,49.5,49.5,0,0,0,10.3,6.57c6.22,3.09,16.4,1.73,27.19.3,12.77-1.7,26.83-3.57,37.35,1.3-10.77-4.59-25.1-2.39-38.39-.34-11.12,1.71-21.63,3.33-28,.37-14.32-6.62-21.39-16-21.6-28.52-.32-18.4,14.25-43.67,43.31-75.09v0c.39-.45,39.22-45,74.08-47.58a35.29,35.29,0,0,1,26.47,8.51,53.84,53.84,0,0,1,12,15.34c7.44,13.63,15.19,23.51,23.3,30.44,28,24,60.32,12.62,98.88-.95,4.22-1.48,8.58-3,13-4.52C-23.93-28.57-1.32-35.74,17-34.95c19.21.83,33,10.33,44.74,30.81,8.33,14.53,12,39.32,9.89,66.33-2.29,29-11.17,56.16-24.36,74.4C32.25,157.33,11.75,167-12,164.43Z"/></g><g class="cls-6"><path class="cls-5" d="M249.65,59.43C240,43.76,221.88,28.74,200,18.24c-20.3-9.76-40.92-14.38-55.15-12.35-42,6-46.6,33.88-51.07,82.63-.35,3.83-.66,7.62-1,11.29-1.81,22-3.37,40.95-11.78,55.64-9.21,16.1-26,25.13-52.72,28.42-16.59,2-27.41,9.64-32.14,22.59-10.07,27.58,11,70.66,11.44,71.47,14.46,31.83,29.18,50.67,43.76,56,6.88,2.53,13.67,2.07,20.56-1.41a45,45,0,0,0,9.5-6.65c4.62-4.11,7-12.71,9.53-21.8,5-18.2,10.76-38.83,35.82-34.31,14.65,2.63,26.75-1.07,35-10.72,10.11-11.84,14.05-32.22,10.55-54.51-1.17-7.45-1.14-13.4-.15-18.31.51-.69,1-1.38,1.57-2.07.68-.85,1.37-1.7,2.08-2.56,1.22-1.41,2.48-2.82,3.78-4.25,1-1.06,2.08-2.14,3.16-3.22s2.08-2,3.16-3,2-1.76,3.06-2.65l3.06-2.46,1.17-.88,1.84-1.39c1-.69,2-1.39,3-2.12s1.92-1.28,2.89-1.95,1.93-1.23,2.91-1.87,1.88-1.15,2.83-1.75,1.87-1.1,2.82-1.67C223,146.82,238,135.9,250.87,113.87,261.16,96.2,260.74,77.37,249.65,59.43Zm-49.17,74.8c-.92-7.36-6.84-14.57-15.08-18.36a27.54,27.54,0,0,0-19.32-1.57c-7.54,2.16-14.2,7.44-19.79,15.69a127,127,0,0,0-16.35,32.76l-.73,2.17c-4.2,12.55-7.24,21.62-24.3,32.43a116.85,116.85,0,0,0-12,9.13c-2.78,2.32-5.63,4.69-8.76,7.06l-.43.25c1.32-1.31,2.6-2.63,3.85-3.93,4.58-4.75,8.9-9.23,14.7-12.4,18.82-10.25,21.81-20.35,25.95-34.32.29-.95.57-1.92.87-2.91,3.34-11.08,7.61-21.19,17.6-34.51,8.38-11.19,23.35-20.28,40.2-12.21,8.24,3.95,14.18,11.17,15.14,18.41a14.47,14.47,0,0,1-3.56,11.7A14.4,14.4,0,0,0,200.48,134.23Zm-4.17,11.14a13.32,13.32,0,0,0,1.95-8.83c-.83-7.11-6.69-14.22-14.59-17.69-5.11-2.25-22.92-7.75-37.33,15.92a177.71,177.71,0,0,0-15.27,31.51c-6,15.56-9.26,24-41.69,44.08,1.36-1.1,2.68-2.2,4-3.29a118.12,118.12,0,0,1,11.9-9.1c17.21-10.9,20.28-20,24.52-32.7.24-.72.48-1.44.73-2.17a124.55,124.55,0,0,1,16.28-32.62c7.91-11.67,22.17-21.47,38.47-14,8,3.68,13.72,10.62,14.6,17.69A13.61,13.61,0,0,1,196.31,145.37Zm6.36-13.43c-1-7.52-7.11-15-15.59-19.07A30.3,30.3,0,0,0,167,110.56c-7.86,1.85-14.84,6.78-20.74,14.65-10,13.39-14.32,23.55-17.68,34.69q-.45,1.48-.87,2.91c-4.1,13.85-7.07,23.86-25.71,34-5.87,3.2-10.21,7.71-14.81,12.49-2,2-4,4.1-6.12,6.11l-.36.21-1,.57c1.12-1.36,2.2-2.76,3.27-4.13,4.41-5.69,9-11.59,16.35-15.12l1.46-.72c19.15-9.67,22.19-21.1,26-35.47.3-1.11.6-2.24.91-3.4,3.29-12,7.76-22.83,18.92-36.4,13.46-16.37,30.46-16.15,41.88-10.47,8.51,4.22,14.67,11.75,15.71,19.16a15.46,15.46,0,0,1-3.85,12.61A14.94,14.94,0,0,0,202.67,131.94Zm2.18-2.27c-1.07-7.7-7.42-15.47-16.15-19.82a33,33,0,0,0-20.9-3c-8.17,1.54-15.44,6.12-21.62,13.63-11.22,13.65-15.72,24.51-19,36.62-.32,1.16-.62,2.29-.92,3.4-3.88,14.6-6.93,26.14-27.21,35.85-7.48,3.59-12.08,9.52-16.52,15.26-1.51,1.95-3.05,3.93-4.71,5.82L76,218.54c.94-1.4,1.85-2.85,2.78-4.34,4.25-6.84,8.66-13.9,17.63-17.76,22.1-9.49,25.16-22.15,29-38.17.3-1.23.61-2.49.93-3.77,3.35-13.47,7.91-24.58,20.23-38.3,14.1-15.7,31.72-14.82,43.52-8.76,8.92,4.58,15.16,12.23,16.3,20a16.46,16.46,0,0,1-4.12,13.51A15.85,15.85,0,0,0,204.85,129.67ZM207,127.4c-1.17-8-7.59-15.89-16.74-20.59-12-6.15-29.86-7.06-44.14,8.85-12.4,13.8-17,25-20.37,38.54l-.92,3.78c-3.84,15.87-6.88,28.4-28.75,37.8-9.11,3.91-13.55,11.05-17.85,17.95-1.27,2-2.5,4-3.82,5.84l-.2.13c.78-1.46,1.52-3,2.27-4.59,3.44-7.24,7.35-15.44,17-19.18,23.72-9.25,26.76-22.91,30.6-40.19.3-1.35.61-2.72.93-4.1,3.44-15,8.08-26.4,21.55-40.2,14.7-15.06,32.94-13.53,45.12-7.08,9.22,4.89,15.7,12.85,16.92,20.79a17.61,17.61,0,0,1-4.41,14.52A16.88,16.88,0,0,0,207,127.4Zm2.15-2.25c-1.26-8.2-7.91-16.41-17.35-21.41-12.35-6.55-30.86-8.11-45.74,7.14-13.56,13.9-18.22,25.36-21.7,40.47-.32,1.39-.62,2.76-.92,4.1-3.81,17.13-6.82,30.66-30.3,39.81-9.78,3.8-13.72,12.11-17.21,19.44-1,2-1.93,4-3,5.86-.8.55-1.59,1.11-2.35,1.67.67-1.55,1.31-3.24,2-5,3.16-8.36,6.74-17.85,17.88-21.82,25.34-9,28.36-23.69,32.18-42.23.3-1.45.6-2.92.92-4.41,3.46-16.23,8.32-28.32,22.87-42.1,15.26-14.43,34.13-12.26,46.7-5.4,9.52,5.19,16.24,13.48,17.56,21.65.7,4.35.16,10.27-5.07,16A18,18,0,0,0,209.16,125.15Zm2.15-2.24c-1.36-8.42-8.25-17-18-22.26-12.75-7-31.87-9.16-47.31,5.45-14.66,13.87-19.55,26.05-23,42.4-.32,1.49-.62,3-.92,4.41-1.93,9.37-3.6,17.47-8,24.5-4.77,7.71-12.37,13.22-23.9,17.33-11.35,4-15,13.65-18.18,22.13-.85,2.23-1.65,4.33-2.53,6.19Q68.23,224,67,225c.62-1.71,1.18-3.59,1.76-5.57,2.68-9.06,6-20.34,18.73-24.51,26.94-8.86,30-24.5,33.75-44.29.29-1.54.59-3.11.91-4.7,3.57-17.92,8.49-30.23,24.2-44s35.28-11,48.25-3.76c10,5.59,16.78,14,18.21,22.54,1,6.08-.73,11.78-5.08,16.74A18.93,18.93,0,0,0,211.31,122.91ZM70.57,223.17l-.6.48v0Zm-1.85,1.4-.06.12c-.78.63-1.53,1.25-2.24,1.87,0-.07.06-.13.09-.21C67.24,225.75,68,225.15,68.72,224.57ZM213.45,120.68c-1.47-8.79-8.43-17.44-18.63-23.14C181.69,90.18,162,87.32,146,101.33c-15.82,13.86-20.77,26.27-24.37,44.31-.32,1.6-.62,3.17-.91,4.71-3.77,19.61-6.74,35.11-33.42,43.87-13,4.26-16.33,15.69-19,24.87-.73,2.44-1.41,4.75-2.21,6.73-.88.73-1.71,1.46-2.51,2.19.59-1.91,1.08-4.07,1.59-6.36,2.29-10.2,5.14-22.89,19.48-27.27,28.56-8.7,31.54-25.31,35.32-46.34.3-1.64.59-3.3.91-5,3.69-19.68,8.64-32.18,25.52-45.9,16.34-13.29,37-9.45,49.8-2.13,10.29,5.91,17.35,14.67,18.87,23.44,1.13,6.51-.78,12.64-5.52,18A20,20,0,0,0,213.45,120.68ZM53.08,262.93c0-.56,0-1.13,0-1.72l0,0C53.1,261.83,53.08,262.38,53.08,262.93Zm1.61,2.93a14.16,14.16,0,0,0,3.7,4.66c5,4.27,13.58,4.17,24,0-10.65,4.72-18,5.32-22.64,2A12.16,12.16,0,0,1,54.69,265.86Zm0,8.66c1.81,3.35,4.5,4.87,8,6.13,5.73,2.06,12.71-2.15,21.56-7.49,1.21-.73,2.47-1.49,3.78-2.26-2.18,1.37-4.24,2.76-6.18,4.06-7.32,4.92-13.1,8.81-18.07,7.53-3.15-.81-6.41-1.88-8.61-5.38-2.4-3.81-3.37-10.28-2.92-19.87a18.27,18.27,0,0,0,.37,2.09C52.13,266.25,52.83,271.18,54.64,274.52Zm29.19-2C75.1,277.8,68.2,282,62.71,280c-3.32-1.19-5.88-2.63-7.56-5.74-1.29-2.38-2-5.71-2.06-10.08a19.28,19.28,0,0,0,1.47,7.48c1.62,3.56,4.45,5.27,7,6.48,6.31,3,14.67-1.49,25.2-7.35Zm-22.12,5c-2.55-1.2-5.12-2.77-6.62-6.07A15,15,0,0,1,54,267.6c.11.41.23.8.37,1.18a13.16,13.16,0,0,0,6.13,6.81c6.08,3.59,14.78.33,25-4.93C75.51,276.19,67.58,280.25,61.71,277.48Zm-1-2.5c-3.06-1.81-4.79-3.71-5.77-6.37a12.93,12.93,0,0,1-.48-1.63,13.49,13.49,0,0,0,5,6.08c6,4.32,15.29,1.85,24.36-2.37C74.35,275.47,66.29,278.28,60.71,275Zm-2-5a13,13,0,0,1-3.78-5,18.08,18.08,0,0,0,2.42,3c5.8,5.81,15.83,5.2,25.15,1.7C72.12,274,63.58,274.16,58.7,270Zm-1-2.49a17,17,0,0,1-3.41-4.94,17.25,17.25,0,0,0,2,2.89c4.88,5.67,14.14,7.11,23.67,4.41C70.69,272.84,62.32,272.14,57.69,267.5Zm-3-5.35c.17.25.33.51.52.76,4.49,6,13.29,8.33,22.15,6.79-8.45,1.77-16.47.23-20.71-4.69A16.48,16.48,0,0,1,54.72,262.15Zm1,.37c-.3-.4-.57-.81-.83-1.23,4.93,6.44,14.7,9.14,23.78,7.45C69.51,270.76,60.25,268.62,55.67,262.52Zm-1-2.5s0,0,0,0a20.15,20.15,0,0,0,4.87,4.35,27.12,27.12,0,0,0,15.93,4.14C67.08,269.14,58.69,266.17,54.65,260Zm-1.27-3c.35-3.78,1-8.1,1.93-13,.48-1,1-2.09,1.67-3.18a120.08,120.08,0,0,0-3.49,16.37C53.45,257.18,53.42,257.11,53.38,257ZM56,237.46c-.07.34-.15.68-.22,1a33.46,33.46,0,0,0-2.15,4c.06-.41.11-.81.17-1.23A31.77,31.77,0,0,1,56,237.46Zm-1.92,1.84,0-.19.14-.11C54.21,239.1,54.15,239.2,54.09,239.3Zm4.3-3.35c0,.09,0,.17-.07.26-.76,1-1.43,2-2,3,0-.12.05-.24.08-.35C57,237.9,57.64,236.94,58.39,236ZM56.77,237a1.16,1.16,0,0,1,0-.18l.18-.13C56.92,236.8,56.84,236.9,56.77,237Zm-1.41,3.52-.09.42a31.23,31.23,0,0,0-2,4.49c0-.12,0-.23,0-.35A27.86,27.86,0,0,1,55.36,240.52Zm-2.67,4.29a21.31,21.31,0,0,0-1.07,4.81,18.62,18.62,0,0,1,1.27-6.31C52.82,243.82,52.76,244.31,52.69,244.81Zm1.44,2.09q-.87,4.95-1.29,9l0-.09c-.06-.53-.09-1.08-.1-1.65,0-.35,0-.71,0-1.08A25.2,25.2,0,0,1,54.13,246.9Zm4.09-8c.48-.74,1-1.48,1.56-2.25-1.77,4.74-3.17,9-4.19,12.7l-.09.25Q56.55,244.73,58.22,238.89Zm3-4.07c.43-.53.88-1.07,1.34-1.62q-2.23,4.62-3.9,8.62C59.38,239.61,60.24,237.28,61.19,234.82Zm-1.7-.25,0-.06.21-.15-.32.4Zm-.37-.65c.12-.27.24-.55.35-.85q1.13-1.26,2.34-2.46l-.36.71c-.84.87-1.6,1.74-2.31,2.58Zm5.09-2.6c.3-.33.61-.66.94-1-1,1.57-1.84,3.08-2.67,4.55C63,233.72,63.61,232.53,64.21,231.32Zm-1.35-1.46.16-.42c.75-.71,1.52-1.4,2.3-2.08l-.15.32C64.35,228.42,63.58,229.15,62.86,229.86ZM215.59,118.45c-1.57-9-8.78-18-19.28-24-12.92-7.41-33.87-11.3-50.4,2.14-17,13.83-22,26.42-25.71,46.24-.31,1.69-.61,3.36-.91,5-3.74,20.84-6.7,37.29-35,45.91C69.71,198.16,66.82,211,64.5,221.37a66.3,66.3,0,0,1-2,7.58c-.89.84-1.73,1.68-2.51,2.52A73.37,73.37,0,0,0,61.46,224c1.74-10.78,4.14-25.53,20.16-30.09a69.35,69.35,0,0,0,12.26-4.66c18.84-9.52,21.45-25,24.62-43.73q.45-2.59.91-5.28c3.72-21.07,8.9-34.25,26.84-47.81,10.06-7.6,23.14-9.9,36.82-6.46,12.25,3.08,23.26,10.37,29.46,19.49,7.18,10.59,6.55,21.43-1.56,30.37A21.32,21.32,0,0,0,215.59,118.45ZM218,122.6c.62-5.76-1.1-11.83-5-17.55-6.3-9.28-17.47-16.69-29.88-19.81-13.84-3.48-27.06-1.16-37.25,6.54-18.08,13.66-23.29,26.94-27,48.15l-.91,5.3c-3.72,22.05-6.67,39.47-36.53,48-16.31,4.63-18.74,19.59-20.52,30.51a51.89,51.89,0,0,1-1.92,8.93c-1,1.09-1.84,2.18-2.64,3.27a47.73,47.73,0,0,0,1.6-9.59c1.28-11.92,3-28.24,20.78-33,31.74-8.45,34.7-27,38.45-50.44q.43-2.74.9-5.58c3.84-23,9-36.27,28.16-49.71,21.79-15.31,55.19-4.18,68.32,15.24C222,114,221.27,125.53,212.55,135A23.52,23.52,0,0,0,218,122.6Zm-3-20.1c-6.48-9.58-18-17.39-30.92-20.88-14.23-3.86-27.81-1.94-38.24,5.39-19.28,13.55-24.51,26.94-28.38,50.07-.32,1.89-.61,3.76-.9,5.59-3.72,23.26-6.65,41.63-38.09,50C60.36,197.48,58.58,214,57.29,226.1c-.66,6.14-1.18,11-3.63,12.44l-.11.06,0,.14c-.11.76-.22,1.51-.32,2.24a19.43,19.43,0,0,0-2.12,10.58,15,15,0,0,0,.64,3c-.75,11.16.21,18.57,2.91,22.85,2.35,3.74,5.76,4.88,9,5.72,2.79.72,5.78-.09,9.1-1.77a95.22,95.22,0,0,0,9.37-5.82c2.24-1.5,4.62-3.11,7.17-4.69-3.15,2.08-6,4.24-8.69,6.27-6.32,4.78-11.31,8.57-15.92,7.84-3.65-.58-7.15-1.39-9.72-4.95-4.18-5.8-5.31-18.08-3.58-38.66,2.33-1.53,2.62-6.45,3-12.66.76-13.09,1.79-31,21.31-35.9,33.34-8.34,36.29-27.82,40-52.48q.43-2.9.9-5.89c3.89-24.44,9.29-38.39,29.48-51.61,22.53-14.74,56.92-2.5,70.37,17.45,8,11.81,7,24.19-2.61,34.32C222,125.07,222.47,113.6,215,102.5Zm2-2.55c-13.62-20.22-48.41-32.63-71.2-17.72-20.35,13.32-25.8,27.38-29.71,52-.32,2-.61,4-.9,5.9-3.7,24.45-6.62,43.77-39.65,52-19.86,5-21,23.89-21.69,36.41-.36,6.13-.64,11-2.83,12.27l-.12.07v.15c-1.78,20.88-.59,33.39,3.73,39.38,2.75,3.81,6.39,4.66,10.19,5.26a11.17,11.17,0,0,0,6.77-1.45A68.16,68.16,0,0,0,81,277.76c2.77-2.1,5.76-4.36,9-6.5a124.19,124.19,0,0,0-10,8c-5.59,4.79-10,8.57-14.35,8.29s-7.91-.79-10.89-4.45c-4.71-5.77-6.65-18.28-6.11-39.38,2.09-1.42,2.16-6.31,2.24-12.47.18-13.48.45-33.87,21.79-38.89a71.51,71.51,0,0,0,15.87-5.56c20.13-10.17,22.66-27.74,25.71-49q.43-3,.9-6.2c4-26.47,9.41-40.48,30.81-53.51,10.78-6.57,24.91-7.66,39.8-3.09,13.68,4.2,25.87,12.7,32.61,22.75,8.52,12.69,7.33,25.62-3.32,36.52C224.18,124.07,224.89,111.75,216.94,100Zm2-2.56C205,76.64,169.23,63.13,145.69,77.46c-21.44,13.05-27.09,27.78-31,53.91-.32,2.1-.61,4.16-.91,6.2-3.68,25.64-6.59,45.9-41.19,54.06-21.73,5.12-22,25.78-22.18,39.45-.08,6.08-.15,10.88-2.11,12l-.12.08v.17c-.56,21.41,1.45,34.15,6.31,40.11,3.17,3.89,7.19,4.46,11.37,4.73A9.91,9.91,0,0,0,70.93,287c2.93-1.48,6-4.12,9.57-7.17A111.59,111.59,0,0,1,91.73,271a96.2,96.2,0,0,0-11.8,10.16c-5,4.88-9,8.74-13.19,8.84-4.58.1-8.66-.12-12.11-3.9-5.19-5.68-8-18.82-8.59-40.17,1.86-1.31,1.73-5.9,1.56-12.2-.4-14.65-1-36.78,22.21-42,36.52-8.14,39.44-29.51,43.14-56.55q.43-3.19.9-6.51c4.06-28,9.66-42.69,32.13-55.42,10.84-6.14,25.71-6.87,40.78-2,14.16,4.58,26.76,13.5,33.69,23.87,5.14,7.69,11.49,22.9-3.71,38.45l-.54.55C226.35,123.29,227.38,110,218.92,97.39ZM87.6,263.67c-7.45,5.5-19.43,5.53-27.88.06a18.84,18.84,0,0,1-5.39-5.14c.1-.8.22-1.63.38-2.49a67.44,67.44,0,0,1,3.55-11.56,145.3,145.3,0,0,1,9-16.34c.32-.32.66-.64,1-1a14,14,0,0,0,2.57-2.36c.69-.59,1.39-1.17,2.13-1.77s1.41-1.2,2.08-1.83l.61-.45c1.34-1,2.6-2,3.8-3,1.8-1.21,3.5-2.43,5.12-3.65,37.42-22.53,40.71-31,47.07-47.5a176.59,176.59,0,0,1,15.22-31.42c14.2-23.33,31.67-17.94,36.69-15.74,7.64,3.36,13.31,10.2,14.11,17a12.78,12.78,0,0,1-3.87,10.94l-.78.49-.24.14c-1.09.56-2.13,1.17-3.15,1.81l-.22.1c-1,.52-2,1.08-3,1.67a35.62,35.62,0,0,0-3.17,1.73c-16.12,7.5-21.54,27-26.34,44.37-2.1,7.59-4.08,14.73-6.73,20.48a43.54,43.54,0,0,1-4,4.29,27.47,27.47,0,0,1-2.49,2c-.46.32-.91.65-1.35,1l0,0c-.87.49-1.71,1-2.54,1.56s-1.76.9-2.6,1.38-1.83.82-2.71,1.25-1.81.69-2.68,1.07-2,.63-2.9,1-1.9.53-2.81.83c-13.44,2.88-20,10.91-26.44,18.72C96.06,255.66,92.39,260.13,87.6,263.67Zm71.13-66.3c4.54-14.91,9.59-31.45,21.48-40.94-11,10.2-16.17,25.8-20.88,39.92-1.05,3.16-2.08,6.23-3.13,9.15C157.05,202.88,157.88,200.16,158.73,197.37Zm-4.1,10.75c1-3.24,1.94-6.62,2.89-10.05,4.11-14.85,8.68-31.32,20.07-40.33-10.43,9.77-15.16,25.27-19.44,39.3C157,200.89,155.83,204.63,154.63,208.12Zm5.28-11.42c5-15,10.56-31.65,23-41.65-11.54,10.68-17.26,26.42-22.43,40.65-.91,2.5-1.8,5-2.7,7.32Q158.83,199.93,159.91,196.7Zm1.13-.64c5.47-15.05,11.56-31.81,24.53-42.37-12.13,11.21-18.38,27.09-24,41.42q-1.05,2.69-2.09,5.28Zm1.08-.58c6-15.16,12.63-32.06,26.23-43.26-12.81,11.84-19.64,27.9-25.79,42.38-.42,1-.85,2-1.26,3Zm29.18-44.89c-13.66,12.58-21.13,28.92-27.84,43.63l-.15.34C169.77,179.32,177.05,162.4,191.3,150.59Zm2.84-1.55c-13.63,12.64-21.64,28.07-28.61,42.26C172.25,176.69,180.08,160.9,194.14,149Zm3.07-1.78c-13.51,12.6-22,27-29.22,40.6C175,173.91,183.31,159.15,197.21,147.26Zm-58.32,83.26.85-.31,0,0c-.29.14-.6.26-.9.37ZM138,230l0,0,.49-.15,0,0Zm-1.07,1,.65-.14-.13.14-.7.17Zm-.58-.61.08-.07.22,0-.07.08Zm-.67.82-.19.19-.48.06.23-.19.25,0Zm-1.78.24-.13.12h-.22l.13-.09Zm-33.82,20.37c5.27-6.42,10.67-13,20-16.68-7.36,3.9-12.33,9.55-17.19,15.08a100.42,100.42,0,0,1-8.37,8.8,65.63,65.63,0,0,1-5.93,4.82l-.27.18C93,260.51,96.59,256.11,100.09,251.85Zm-5.18,7.78a102.72,102.72,0,0,0,8.41-8.84c5.39-6.14,10.91-12.42,19.72-16.26-6.9,3.94-11.85,9.31-16.69,14.56a90,90,0,0,1-10.62,10.34l-.57.44c-1.8,1.41-3.67,2.87-5.66,4.21l-.06,0C91.58,262.56,93.48,260.91,94.91,259.63Zm.65.84.57-.44a91.31,91.31,0,0,0,10.68-10.39c5.42-5.89,11-11.92,19.28-15.88-6.4,4-11.26,9.06-16,14.07-4.21,4.44-8.18,8.63-13.11,12-.83.56-1.65,1.13-2.48,1.71-1.19.84-2.43,1.7-3.69,2.53C92.47,262.88,94,261.66,95.56,260.47Zm-.68,1.67c.83-.58,1.65-1.16,2.47-1.72,5-3.37,9-7.59,13.19-12,5.31-5.61,10.76-11.35,18.38-15.41-5.78,3.92-10.39,8.74-14.9,13.46-5,5.23-9.73,10.17-15.8,13.76-1.34.79-2.68,1.65-4,2.49-.64.42-1.3.83-2,1.25C93.17,263.33,94,262.73,94.88,262.14Zm-.27,1.17c1.36-.88,2.64-1.71,4-2.49,6.12-3.62,10.87-8.59,15.89-13.84s9.92-10.37,16.42-14.43l.2,0a114.59,114.59,0,0,0-13,12.33c-5.8,6.14-11.29,11.94-18.63,15.71-1.81.92-3.51,2-5.32,3.05l-.52.31Zm5.19-2.1c7.41-3.8,12.92-9.63,18.76-15.8,4.28-4.52,8.65-9.13,13.91-13l.43,0a148.79,148.79,0,0,0-10.6,10.73c-6.61,7.19-12.85,14-21.58,17.86-1.81.8-3.57,1.77-5.29,2.74C96.89,262.81,98.32,262,99.8,261.21Zm1.22.39c8.82-3.92,15.1-10.74,21.75-18a137.69,137.69,0,0,1,11.31-11.36l.61-.05c-2.84,2.86-5.51,5.89-8.13,8.86-7.38,8.39-14.35,16.31-24.6,20.24A41.82,41.82,0,0,0,98,263.1l-.77.4C98.5,262.82,99.74,262.18,101,261.6Zm1.22.4c1.22-.47,2.39-1,3.52-1.56,8.5-4.29,14.72-11.37,21.27-18.81,2.83-3.21,5.71-6.48,8.81-9.54l.8-.13c-2,2.25-3.92,4.57-5.81,6.85-7.73,9.34-15.73,19-27.62,22.9-1.14.38-2.23.81-3.31,1.29C100.67,262.64,101.45,262.3,102.24,262Zm1.09.44.14-.05a37.63,37.63,0,0,0,5.08-2.11c9.32-4.7,16.14-12.94,22.76-20.94,2.12-2.57,4.28-5.17,6.53-7.67.34-.1.67-.21,1-.33-1.28,1.62-2.54,3.25-3.78,4.87-8.32,10.86-16.93,22.08-30.61,25.89C104.07,262.2,103.7,262.32,103.33,262.44Zm2.14.1a36.24,36.24,0,0,0,5.88-2.35c10.12-5.11,17.26-14.42,24.2-23.47,1.52-2,3-4,4.63-5.93.41-.2.81-.41,1.2-.64l-2.17,3.09c-8.81,12.59-17.92,25.61-33.52,29.24Zm34.24-28.8c1.11-1.6,2.21-3.15,3.3-4.67.52-.4,1-.83,1.51-1.29l-1.3,2.06c-9,14.38-18.36,29.23-35.58,32.88C122.36,258.52,131.18,245.93,139.71,233.74Zm4-3.43c2-3.27,4-6.36,6-9.3.1-.13.19-.28.29-.42-1,1.72-1.95,3.48-3,5.32-8.68,15.72-18.51,33.49-37.62,37.12C125.88,258.73,135.35,243.67,143.74,230.31Zm3.86-3.95c1.23-2.23,2.39-4.33,3.57-6.38l.69-1.19.38-.66c-.07.13-.13.27-.2.4q-.66,1.38-1.32,2.79c-8.14,17.16-18.21,38.41-39.44,42.05C129.54,259,139.12,241.72,147.6,226.36Zm-26.16,34.42c14.87-7.51,23-24.7,29.83-39,.44-.94.88-1.87,1.32-2.78.53-1.12,1.08-2.22,1.63-3.32-.26.63-.53,1.26-.78,1.91-6.69,17-16.7,42.47-40.23,46.17A34.33,34.33,0,0,0,121.44,260.78Zm2.34.3c16.54-8.36,24.56-28.76,30.23-43.17q1-2.43,2-4.8c-.41,1.13-.81,2.27-1.18,3.43-7,21.84-17.14,44.3-39.65,47.53A35,35,0,0,0,123.78,261.08Zm31.64-44.2q1-3.23,2.26-6.26-.78,2.38-1.43,4.92c-7.74,30.45-20.58,46.52-39.21,49C138.64,260.38,148.58,238.33,155.42,216.88Zm1.42-1a74.91,74.91,0,0,1,2.32-7.47c-.58,2-1.09,4-1.51,6.18-4.25,21.67-14.38,47.27-38.51,50.33C136.94,261.6,149.31,245.48,156.84,215.84Zm1.41-1a64.74,64.74,0,0,1,2.33-8.71,63.61,63.61,0,0,0-1.53,7.45c-1.43,10-4.73,24.24-12.25,35.3-6.6,9.71-15.23,15.22-25.7,16.45C144.23,261.21,154.07,236.12,158.25,214.81Zm-10.94,34.53c7.58-11.16,10.9-25.5,12.35-35.56a60.61,60.61,0,0,1,2.3-10,61,61,0,0,0-1.5,8.81c-1,10.3-3.82,25-11.57,36.7-6.53,9.81-15.2,15.33-25.81,16.5C132.88,264.1,141,258.61,147.31,249.34Zm-22.49,16.9c10-1.54,18.29-7.06,24.58-16.51,7.82-11.77,10.66-26.61,11.67-37a57,57,0,0,1,2.18-11.21,58,58,0,0,0-1.38,10C160.47,237.12,149.91,263.72,124.82,266.24Zm37.66-54.52a53.88,53.88,0,0,1,2-12.42,55.94,55.94,0,0,0-1.24,11.25c-.42,25.32-10.39,53.76-36.59,56.17C150.86,263.17,161.1,236.94,162.48,211.72Zm1.41-1a52.6,52.6,0,0,1,1.82-13.5,56.33,56.33,0,0,0-1,12.36c.31,16-3.09,30.55-9.56,40.89-6.27,10-15.28,15.73-26.33,16.75C153.87,263.57,163.48,235.63,163.89,210.69Zm-8.25,40.22c6.53-10.44,10-25.1,9.65-41.25A51.55,51.55,0,0,1,166.91,195a54.92,54.92,0,0,0-.82,13.52c.84,16.3-2.41,31.72-8.89,42.3-6.28,10.23-15.41,16-26.71,16.86C141,266.31,149.57,260.62,155.64,250.91Zm2.08.41c6.55-10.68,9.82-26.24,9-42.69A50.74,50.74,0,0,1,168.05,193a54.61,54.61,0,0,0-.55,14.56c1.66,20.57-3.13,39.25-12.82,50a32.17,32.17,0,0,1-22.55,10.76C142.9,267,151.64,261.24,157.72,251.32ZM155.14,258c9.8-10.83,14.65-29.68,13-50.44a50.25,50.25,0,0,1,1.07-16.69,54.6,54.6,0,0,0-.27,15.63c2.28,21.09-2.21,40.28-12,51.33a31.88,31.88,0,0,1-23,10.94A32.4,32.4,0,0,0,155.14,258Zm2.21.37c9.92-11.17,14.47-30.55,12.17-51.83-.77-7.12-.44-12.86.77-17.66a54.41,54.41,0,0,0,0,16.61c2.88,21.58-1.31,41.26-11.21,52.65a31.72,31.72,0,0,1-22.31,11.08A32,32,0,0,0,157.35,258.41Zm14.38-53.88c3.47,22.09-.43,42.27-10.42,54a32,32,0,0,1-22.78,11.25,32.36,32.36,0,0,0,21.05-11.05c10-11.51,14.25-31.38,11.34-53.16-1-7.32-.79-13.2.33-18.07l.05-.07A55.51,55.51,0,0,0,171.73,204.53Zm4.72-29.75a24.63,24.63,0,0,0-2.36,3.74c-.14.23-.28.47-.41.71q-1.5,2.47-2.92,4.92c7.22-13.17,16-26.9,29.58-38.74A150.8,150.8,0,0,0,176.45,174.78Zm4-4.28c-.3.27-.6.54-.89.82a144.36,144.36,0,0,1,24.3-28.14A185.68,185.68,0,0,0,180.42,170.5Zm2.7-2.19-.59.44a181.69,181.69,0,0,1,24.56-27.63A238.68,238.68,0,0,0,183.12,168.31ZM185,167a239.43,239.43,0,0,1,25.76-28.37,341.73,341.73,0,0,0-25.38,28.12Zm2.25-1.45a349.47,349.47,0,0,1,27.5-29.85h0c-10.51,10.81-19.47,20.56-27.2,29.68Zm2.34-1.37-.18.1c7.89-9.21,17-19.08,27.75-30,11.51-11.76,12.83-25.74,3.72-39.36-7-10.51-19.77-19.55-34.09-24.18-15.21-4.91-30.24-4.17-41.19,2-22.65,12.83-28.29,27.59-32.38,55.82-.32,2.21-.61,4.38-.91,6.51-3.67,26.83-6.57,48-42.75,56.09-23.61,5.27-23,27.7-22.6,42.54.17,6,.29,10.74-1.44,11.77l-.13.07v.19c.6,22,3.4,35,8.83,40.91,3.66,4,7.88,4.24,12.61,4.13a9.17,9.17,0,0,0,3.93-1.07c3-1.51,6-4.45,9.59-7.9a93.71,93.71,0,0,1,12.26-10.48,83.76,83.76,0,0,0-12.56,11.82c-4.64,5-8.3,9-12.33,9.45-5,.53-9.38.65-13.36-3.27-5.76-5.67-9.37-19.1-11-41,1.65-1.22,1.36-5.71,1-11.87-1-14.88-2.57-39.77,22.56-45.09,38.1-8.05,41-30.35,44.7-58.57q.43-3.36.91-6.83c4.1-29.62,9.9-44.92,33.44-57.32,11.07-5.83,26.28-6.17,41.75-.93,14.66,5,27.66,14.31,34.78,25,9,13.55,7.85,27.6-3.3,39.56L212.75,139C204.1,148.29,196.42,156.51,189.62,164.13Zm1.9-1.07h0c6.44-7.16,13.64-14.87,21.69-23.48l6.39-6.84c15.35-16.46,8.66-32.42,3.3-40.46C215.69,81.44,202.54,72,187.74,67c-15.61-5.29-31-4.95-42.16,1C121.84,80.41,116,95.83,111.86,125.66c-.32,2.31-.62,4.59-.91,6.82-3.66,28-6.55,50.13-44.3,58.12-25.56,5.4-23.94,30.62-23,45.69.38,5.88.68,10.52-.84,11.42l-.15.08,0,.2c1.68,22.26,5.39,35.93,11.32,41.77,4.54,4.47,9.71,3.92,13.87,3.48a8.68,8.68,0,0,0,3-.93c3.07-1.55,6.06-4.81,9.62-8.68s7.73-8.41,13-12.1c-5.39,4-9.53,9.07-13.08,13.39-4.14,5.05-7.71,9.41-11.67,10.14-5.31,1-10.07,1.47-14.62-2.59-6.36-5.68-10.77-19.4-13.49-41.94,1.44-1.13,1-5.29.41-11.49-1.6-16-4.26-42.83,22.85-48.27,39.68-8,42.58-31.2,46.25-60.6.3-2.35.59-4.73.92-7.15,4.23-31.85,10-47.13,34.76-59.23,11.29-5.52,26.86-5.47,42.73.14,15.15,5.35,28.56,15.13,35.87,26.15,9.17,13.83,8.14,28.28-2.9,40.67-8.88,9.95-17,18.53-24.15,26.1Q194.36,160,191.52,163.06Zm3.28-2.44,3-3.22c7.16-7.57,15.28-16.15,24.15-26.11,11.27-12.64,12.3-27.4,2.9-41.57-7.4-11.16-21-21-36.25-26.46-16-5.65-31.72-5.69-43.13-.12C133,69.25,125.12,76.38,119.9,86.23c-5.06,9.54-7.43,21.52-9.43,36.57-.32,2.42-.62,4.81-.91,7.15-3.65,29.18-6.53,52.23-45.86,60.13C36.13,195.61,38.84,222.77,40.45,239c.57,5.71,1,10.23-.3,11l-.16.09,0,.21c2.74,22.88,7.26,36.85,13.8,42.69C59,297.6,64.75,296.53,69,295.75a8.56,8.56,0,0,0,2.23-.77c3.25-1.64,6.3-5.36,9.72-9.54,3.66-4.46,8-9.69,13.64-13.76-5.77,4.38-10,10.12-13.61,15-3.89,5.29-7.25,9.86-11.16,10.88-5.44,1.41-10.74,2.34-15.9-1.86C46.9,290,41.69,276,38,252.81c1.24-1.06.71-5.07-.08-11-2.11-16.06-6.06-46,23.09-51.53a76.94,76.94,0,0,0,20.29-6.52c22.14-11.18,24.58-31.57,27.52-56.1.29-2.44.59-4.94.92-7.47C114,86.64,119.94,70.75,145.78,59c25.64-11.63,65.79,6,80.67,28.49,9.32,14.13,8.43,29-2.51,41.78C213.18,141.91,203.46,151.85,194.8,160.62Zm3.45-2.49c7.89-8,16.61-17.11,26.16-28.29,11.15-13.07,12-28.22,2.5-42.67-16.53-25.05-57.64-39.59-81.44-28.8-26.06,11.8-32.07,27.82-36.39,61.57-.32,2.54-.62,5-.92,7.48-3.63,30.35-6.5,54.32-47.41,62.14-29.62,5.67-25.62,35.94-23.48,52.2.73,5.51,1.3,9.86.17,10.53l-.16.09,0,.23c3.78,23.54,9.1,37.82,16.27,43.66,5.39,4.38,10.84,3.44,16.42,2a7.82,7.82,0,0,0,1.62-.62c3.39-1.71,6.4-5.8,9.81-10.44,3.75-5.1,8.18-11.11,14.33-15.53-6.21,4.73-10.54,11.23-14.2,16.76S74.69,298.8,70.79,300.1c-5.5,1.82-11.36,3.25-17.17-1.08C46,293.34,40,279,35.26,255.09c1.05-1,.45-4.63-.5-10.51-2.8-17.17-8-49.15,23.24-54.85A78.16,78.16,0,0,0,79.36,183c22.67-11.45,25.1-32.55,28-57.89.29-2.56.59-5.16.92-7.81,2.11-17.1,4.47-29.71,9.72-39.67,5.5-10.44,14-17.65,27.69-23.37,11.73-4.92,28-4.1,44.67,2.23,16.17,6.14,30.4,16.79,38.08,28.48,6.7,10.2,11.77,25.92-2.13,42.89A353.33,353.33,0,0,1,198.25,158.13Zm3.28-2.21a344,344,0,0,0,25.29-27.54c11-13.48,11.79-29,2.11-43.76-16.84-25.64-59-41.3-83.52-31-13.75,5.76-22.37,13-27.93,23.6-5.29,10-7.67,22.71-9.79,39.89-.32,2.64-.62,5.25-.92,7.8-3.62,31.52-6.49,56.4-49,64.15-31.74,5.79-26.48,38.16-23.65,55.55.85,5.27,1.53,9.43.58,10l-.17.1,0,.23c4.79,24.23,10.92,38.84,18.74,44.67,6,4.51,12.06,3.06,17.7,1.19a8,8,0,0,0,1.1-.46c3.55-1.79,6.53-6.28,9.92-11.4,3.76-5.67,8.2-12.37,14.67-17.08-6.5,5-10.81,12.19-14.47,18.29-3.52,5.87-6.56,10.94-10.47,12.5-5.77,2.3-12,4.18-18.44-.27-8.27-5.67-15.08-20.39-20.81-45,.87-.92.2-4.38-.86-9.91-1.67-8.7-4.19-21.85-2.1-33.51,2.49-13.9,11-22.22,25.45-24.73,44.42-7.75,47.29-33.74,50.93-66.64.3-2.67.6-5.38.93-8.14,4.24-35.61,9.44-53.63,38.73-64.95,12-4.62,28.6-3.43,45.65,3.26s31.22,17.46,39.2,29.67c6.8,10.41,12,26.49-1.76,44A262.28,262.28,0,0,1,201.53,155.92Zm3.55-2.4a256.56,256.56,0,0,0,24.14-26.59c14-17.81,8.68-34.22,1.73-44.85-8.07-12.36-22.49-23.29-39.55-30s-34-7.93-46-3.26c-29.55,11.42-34.79,29.55-39.06,65.4-.33,2.76-.63,5.47-.92,8.14-3.62,32.67-6.47,58.48-50.52,66.16-33.92,5.91-27.06,41.74-23.75,58.95.91,4.79,1.71,8.93.93,9.39l-.18.11.06.24c5.79,24.95,12.73,39.9,21.21,45.71,6.74,4.63,13.33,2.61,19,.35.22-.09.44-.19.65-.3,3.74-1.88,6.68-6.78,10-12.4,3.72-6.2,8.12-13.54,14.82-18.51-6.71,5.28-11,13.08-14.56,19.69-3.38,6.2-6.31,11.55-10.23,13.38-5.76,2.67-12.5,5.14-19.71.57-8.94-5.66-16.55-20.73-23.26-46.06.67-.8.1-3.55-1.15-9.25-4-18.09-12.25-55.75,23.39-61.7,46-7.68,48.86-34.58,52.49-68.64.3-2.78.6-5.61.93-8.48,4.29-37.29,9.64-56,40.05-66.85,12.2-4.33,29.2-2.77,46.64,4.28s32.15,18.3,40.31,30.87c6.9,10.62,12.27,27.06-1.39,45.09A213.33,213.33,0,0,1,205.08,153.52Zm2.63-1.47a213.25,213.25,0,0,0,23.92-26.57c13.88-18.34,8.4-35.11,1.36-45.94-8.26-12.71-23.08-24.08-40.67-31.19s-34.71-8.66-47-4.29C114.63,55,109.23,73.83,104.91,111.37c-.33,2.88-.63,5.71-.93,8.48-3.6,33.83-6.45,60.55-52.07,68.16-15.57,2.6-24.64,11.63-26.94,26.83-1.9,12.61,1.14,26.45,3.15,35.61,1,4.48,1.84,8.35,1.22,8.71l-.19.11.07.25c6.79,25.69,14.53,41,23.68,46.79,7.47,4.73,14.36,2.21,20.24-.52l.25-.12c4-2,6.85-7.32,10.2-13.47,3.66-6.71,8-14.65,14.89-19.88-6.88,5.53-11.06,13.93-14.59,21-3.25,6.55-6.06,12.2-10,14.3-6.43,3.38-13.4,5.89-21,1.45-9.48-5.57-18.13-21.44-25.72-47.18.52-.74-.05-3.18-1.37-8.5-4.37-17.71-14.62-59.17,23.36-65.25,47.57-7.61,50.43-35.42,54.05-70.64q.43-4.33.93-8.81c4.34-39,9.85-58.51,41.38-68.77,12.43-4,29.79-2.11,47.63,5.3s33.08,19.16,41.43,32.08c7,10.83,12.5,27.64-1,46.19A182.29,182.29,0,0,1,207.71,152.05ZM234,124c13.76-18.86,8.14-36,1-47-8.44-13.06-23.68-24.87-41.79-32.4-18-7.46-35.46-9.39-48-5.31-31.81,10.34-37.36,30-41.73,69.23-.33,3-.63,5.93-.93,8.82-3.6,35-6.43,62.6-53.63,70.15-38.53,6.17-28.18,48.1-23.75,66,.93,3.77,1.89,7.68,1.42,8l-.19.11.08.26C34.3,288.28,42.85,304,52.68,309.71c7.42,4.35,14.21,2.28,20.48-.88l1-.53c4.12-2.17,7-7.89,10.25-14.52,3.75-7.54,7.88-15.84,14.82-21.19-6.91,5.64-10.88,14.39-14.49,22.34-3.15,6.92-5.86,12.89-9.89,15.25-11.26,6.59-17.55,4.88-22.22,2.34C42.49,307,33,290.72,24.46,264.2c.37-.66-.16-2.73-1.51-7.67C19.73,244.77,13,220.3,21.29,203.9c4.49-8.92,12.87-14.38,24.91-16.23,10.46-1.61,18.81-4.17,25.53-7.56C96.58,167.55,99,143.66,101.8,115c.3-3,.6-6.06.94-9.16,2.28-21.16,4.72-35.54,10.39-46.48,6.19-12,16.16-19.41,32.31-24.2,12.49-3.7,30.67-1.34,48.63,6.31,18.51,7.88,34,20,42.55,33.31,10.18,15.84,9.94,32.18-.68,47.27a160.38,160.38,0,0,1-25.21,28.17A181.74,181.74,0,0,0,234,124Zm2.41-1.45c13.64-19.37,7.88-36.85.66-48.11-8.63-13.42-24.27-25.68-42.91-33.62-18.08-7.7-36.4-10.07-49-6.33-16.28,4.82-26.34,12.36-32.6,24.44-5.72,11-8.17,25.47-10.46,46.7-.33,3.11-.64,6.16-.93,9.17C97.61,151,94.77,179.49,46,187c-12.21,1.87-20.71,7.42-25.28,16.5-8.37,16.62-1.62,41.29,1.63,53.14.91,3.32,1.85,6.76,1.56,7.13l-.19.11.08.27c8.64,26.86,18.28,43.35,28.65,49,4.42,2.41,10.24,4.1,20.07-.86.86-.44,1.76-.93,2.68-1.47,4.17-2.44,6.91-8.48,10.09-15.47,3.71-8.17,7.8-17.17,15.08-22.71-7.24,5.84-11.17,15.27-14.74,23.84-3,7.3-5.66,13.6-9.75,16.23-6.53,4.19-14.42,7.85-23.47,3.25-10.85-5.51-21.17-22.15-30.68-49.48.26-.59-.23-2.31-1.57-6.75-3.71-12.35-11.42-38-2.89-55.58,4.57-9.41,13.31-15.12,26-17,10.91-1.61,19.59-4.24,26.56-7.76,25.41-12.83,27.77-37.43,30.6-66.88.3-3.11.6-6.28.94-9.5,2-19.07,4.17-35.86,10.55-48.22s16.69-19.86,33.47-24.36c12.74-3.43,31.3-.69,49.64,7.31,19,8.3,35,20.89,43.68,34.55,10.31,16.14,10.18,32.86-.35,48.35a144.64,144.64,0,0,1-24.75,28A161.07,161.07,0,0,0,236.44,122.58Zm2.4-1.46c13.53-19.87,7.64-37.71.32-49.17-8.8-13.79-24.85-26.5-44-34.86-18.46-8.05-37.15-10.8-50-7.35-16.91,4.55-27.33,12.14-33.77,24.62s-8.61,29.31-10.62,48.44q-.49,4.85-.94,9.52c-3.58,37.27-6.4,66.71-56.73,74.14-12.82,1.89-21.68,7.7-26.33,17.26-8.64,17.78-.87,43.67,2.87,56.12.89,3,1.73,5.76,1.59,6.22l-.17.1.09.27c9.61,27.66,20.09,44.53,31.15,50.15,7.29,3.7,13.81,2.22,19.48-.64a52.12,52.12,0,0,0,4.51-2.62c4.23-2.71,6.88-9.08,10-16.47,3.61-8.68,7.6-18.25,15-24-7.38,6-11.21,16-14.69,25.11-2.94,7.7-5.49,14.35-9.65,17.25-6.32,4.4-14.84,8.85-24.7,4.17-11.54-5.47-22.7-22.51-33.18-50.65.15-.53-.29-1.93-1.54-5.73-3.9-11.92-13-39.83-4.22-58.61,4.65-9.9,13.74-15.88,27-17.77,11.36-1.61,20.37-4.31,27.58-7.95C93.85,165.57,96.2,140.27,99,110c.3-3.21.61-6.52.95-9.86,4.23-41.6,8.43-65.57,45.34-74.49,13-3.14,31.94,0,50.66,8.31,19.58,8.73,35.91,21.78,44.81,35.8,10.43,16.45,10.42,33.54,0,49.42a132.28,132.28,0,0,1-24.35,27.89A144.52,144.52,0,0,0,238.84,121.12Zm2.41-1.45c10.61-16.12,10.61-33.5,0-50.24-9-14.16-25.44-27.32-45.15-36.1-18.83-8.4-37.9-11.52-51-8.36-17.55,4.25-28.33,11.89-35,24.78C103.59,62.46,101.38,80,99.35,100c-.34,3.34-.65,6.66-.94,9.86-3.57,38.42-6.39,68.76-58.29,76.13-13.45,1.91-22.67,8-27.39,18.05-8.93,19,.28,47.15,4.21,59.16a38.44,38.44,0,0,1,1.52,5.22l-.14.08.1.28C29,297.2,40.32,314.46,52.07,320c7.41,3.51,14,2,19.59-.77a47.45,47.45,0,0,0,5.64-3.43c4.29-3,6.86-9.7,9.84-17.49,3.45-9,7.25-18.91,14.54-24.89-7.23,6.28-10.87,16.61-14.18,26-2.73,7.77-5.32,15.12-9.55,18.29-6.5,4.85-15.31,9.82-25.93,5.11C39.78,317.42,27.78,300,16.34,271c.05-.41-.3-1.46-1.41-4.58-4-11.37-14.77-41.57-5.67-61.71C14,194.28,23.42,188,37.35,186.12c11.79-1.62,21.13-4.38,28.57-8.14,26.47-13.37,28.84-39.27,31.67-70.26.3-3.39.62-6.89,1-10.43C102.78,54,107,29.13,145.24,20.89c13.26-2.86,32.59.62,51.68,9.31,20.12,9.15,36.86,22.66,45.93,37.06,10.57,16.75,10.66,34.21.29,50.49a123.29,123.29,0,0,1-24,27.88A133.85,133.85,0,0,0,241.25,119.67Zm2.4-1.45c10.53-16.52,10.42-34.26-.32-51.3-9.16-14.53-26-28.15-46.27-37.36-19.21-8.74-38.66-12.24-52-9.36-18.2,3.93-29.35,11.61-36.15,24.91-6.68,13-8.89,31.25-10.91,52-.35,3.54-.67,7-1,10.44-3.6,39.44-6.44,70.6-59.81,77.89-14.1,1.93-23.68,8.28-28.46,18.88-9.22,20.4,1.59,50.82,5.66,62.27a41.25,41.25,0,0,1,1.35,4.11l-.11.07.11.28C27.27,300.32,39.44,318,51.89,323.49c7.52,3.34,14.13,2,19.67-.84a46.44,46.44,0,0,0,6.78-4.31c4.36-3.26,7-10.68,9.74-18.53,3.45-9.81,7.27-20.65,15.19-26.72-7.85,6.39-11.51,17.63-14.81,27.82-2.66,8.17-5.17,15.9-9.49,19.35-6.13,4.89-15.62,10.84-27.14,6.06-12.95-5.38-25.8-23.23-38.21-53.06a18.42,18.42,0,0,0-1.15-3.3c-4.12-10.68-16.65-43.19-7.25-64.89,4.76-11,14.58-17.54,29.18-19.47C46.64,184,56.31,181.15,64,177.27,91.05,163.61,93.4,137,96.2,105.15c.31-3.49.63-7.09,1-10.72,4.29-45,8.63-70.81,48-78.31,13.55-2.58,33.26,1.27,52.73,10.31C218.55,36,235.7,50,245,64.75c10.68,17.06,10.89,34.89.59,51.55a116,116,0,0,1-23.76,28A124.08,124.08,0,0,0,243.65,118.22Zm2.41-1.45c10.45-16.91,10.23-35-.64-52.35-9.33-14.91-26.61-29-47.39-38.63-19.58-9.09-39.41-13-53.06-10.36C105.26,23,100.89,49,96.57,94.23c-.35,3.64-.67,7.24-1,10.73-1.82,20.76-3.4,38.68-11.42,52.64-8.79,15.3-24.66,24-49.94,27.31-14.79,2-24.73,8.6-29.57,19.77-9.51,22,3.11,54.7,7.26,65.45.5,1.3,1.1,3.2,1.1,3.2C25.54,303.46,38.56,321.5,51.71,327c7.7,3.19,14.48,1.73,20-1.06a44.92,44.92,0,0,0,7.67-5.06c4.44-3.54,7-11.34,9.65-19.6,3.35-10.3,7-21.68,15.11-27.92-8,6.57-11.52,18.34-14.72,29-2.58,8.59-5,16.71-9.42,20.43-6.28,5.31-16.06,11.81-28.35,7C38,324.47,24.28,306.2,10.9,275.49c-.07-.26-.28-.76-.73-1.82-15.52-36.82-13.48-57.4-9-68.17,4.79-11.63,15-18.5,30.32-20.42,12.65-1.63,22.63-4.54,30.54-8.53,27.71-14,30.05-41.35,32.83-74,.31-3.55.62-7.23,1-10.94,4.36-46.72,8.8-73.48,49.31-80.22,13.84-2.29,33.94,1.93,53.78,11.3,21.19,10,38.75,24.45,48.17,39.6,10.81,17.37,11.11,35.56.89,52.61a110.31,110.31,0,0,1-23.52,28.05A117.4,117.4,0,0,0,246.06,116.77Zm4.28-3.36A105.38,105.38,0,0,1,227,141.65a111.71,111.71,0,0,0,21.5-26.33c10.37-17.29,10-35.75-.93-53.4C238,46.63,220.34,32.09,199,22c-20-9.42-40.17-13.66-54.11-11.35C104,17.46,99.57,44.38,95.18,91.38c-.35,3.71-.66,7.39-1,10.94-1.83,21.37-3.4,39.82-11.61,54.14-9,15.7-25.31,24.57-51.33,27.93-15.52,2-25.85,8.92-30.71,20.72-8.14,19.75.43,48.3,9.06,68.76.26.61.57,1.46.57,1.46l.12.3c13.49,31,27.36,49.41,41.23,54.82a23.88,23.88,0,0,0,20.22-1.18,44.47,44.47,0,0,0,8.64-5.91c4.53-3.83,7-12,9.59-20.69,3.08-10.27,6.47-21.58,13.87-28.16C96.6,281.37,93.38,293,90.39,303.75c-2.5,9-4.86,17.53-9.37,21.54-10.06,9-19.73,11.58-29.55,8-14.38-5.26-28.95-24-43.31-55.57v0c-.21-.43-21.4-43.45-11.39-70.85a31.21,31.21,0,0,1,15.72-17.7,48.45,48.45,0,0,1,16-4.56C41.63,183,52,180,60.12,175.86,88.36,161.6,90.68,133.53,93.44,100c.3-3.66.61-7.45,1-11.28,2.2-24,4.43-43.4,11.34-57.14C113,17.13,125.12,9.43,145,6.59c14.13-2,34.62,2.57,54.83,12.28,21.73,10.45,39.7,25.35,49.3,40.89C260.09,77.43,260.49,96,250.34,113.41Z"/></g><rect class="cls-1" x="-13.18" y="-14.17" width="180" height="270.99"/></g></svg>