<?xml version="1.0" standalone="no"?>
<svg xmlns:xlink="http://www.w3.org/1999/xlink" xmlns="http://www.w3.org/2000/svg" viewBox="0 0 500 291.66940627260175" preserveAspectRatio="xMaxYMax slice"><g transform="scale(0.6575054244197515)"><rect x="0" y="0" width="760.4571428571429" height="443.6" fill="#ffffff"/><path d="M 63.37 63.37 A 63.37 63.37 0 0 1  126.74 0 L 63.37 63.37 A 63.37 63.37 0 0 0 126.74 0" fill="#fff8b0"/><path d="M 316.86 63.37 A 63.37 63.37 0 0 1  380.23 0 L 316.86 63.37 A 63.37 63.37 0 0 0 380.23 0" fill="#fff475"/><path d="M 633.71 0 A 63.37 63.37 0 0 1  697.08 63.37 L 633.71 0 A 63.37 63.37 0 0 0 697.08 63.37" fill="#1ab61d"/><rect x="126.74285714285715" y="63.371428571428574" width="63.371428571428574" height="63.371428571428574" fill="#ffffff"/><path d="M 126.74 95.06 A 31.69 31.69 0 0 1  158.43 63.37 L 126.74 95.06 A 31.69 31.69 0 0 0 158.43 63.37" fill="#98de99"/><path d="M 190.11 126.74 A 63.37 63.37 0 0 1  253.48000000000002 63.37 L 190.11 126.74 A 63.37 63.37 0 0 0 253.48000000000002 63.37" fill="#3ac03d"/><rect x="506.9714285714286" y="63.371428571428574" width="63.371428571428574" height="63.371428571428574" fill="#ffffff"/><path d="M 538.66 95.06 A 31.69 31.69 0 0 1  570.35 126.75 L 538.66 95.06 A 31.69 31.69 0 0 0 570.35 126.75" fill="#fff8b0"/><rect x="697.0857142857143" y="63.371428571428574" width="63.371428571428574" height="63.371428571428574" fill="#ffffff"/><path d="M 728.77 95.06 A 31.69 31.69 0 0 1  760.46 63.37 L 728.77 95.06 A 31.69 31.69 0 0 0 760.46 63.37" fill="#fff9b4"/><rect x="0" y="126.74285714285715" width="63.371428571428574" height="63.371428571428574" fill="#ffffff"/><path d="M 0 158.43 A 31.69 31.69 0 0 1  31.69 190.12 L 0 158.43 A 31.69 31.69 0 0 0 31.69 190.12" fill="#9fe1a0"/><path d="M 63.37 190.10999999999999 A 63.37 63.37 0 0 1  126.74 126.74 L 63.37 190.10999999999999 A 63.37 63.37 0 0 0 126.74 126.74" fill="#fffabf"/><path d="M 190.11 190.10999999999999 A 63.37 63.37 0 0 1  253.48000000000002 126.74 L 190.11 190.10999999999999 A 63.37 63.37 0 0 0 253.48000000000002 126.74" fill="#fff263"/><rect x="443.6" y="126.74285714285715" width="63.371428571428574" height="63.371428571428574" fill="#ffffff"/><rect x="633.7142857142858" y="126.74285714285715" width="63.371428571428574" height="63.371428571428574" fill="#ffffff"/><rect x="697.0857142857143" y="126.74285714285715" width="63.371428571428574" height="63.371428571428574" fill="#ffffff"/><path d="M 697.09 158.43 A 31.69 31.69 0 0 1  728.7800000000001 126.74 L 697.09 158.43 A 31.69 31.69 0 0 0 728.7800000000001 126.74" fill="#9adf9b"/><path d="M 728.77 126.74 A 31.69 31.69 0 0 1  760.46 158.43 L 728.77 126.74 A 31.69 31.69 0 0 0 760.46 158.43" fill="#f3fbf3"/><path d="M 0 253.48000000000002 A 63.37 63.37 0 0 1  63.37 190.11 L 0 253.48000000000002 A 63.37 63.37 0 0 0 63.37 190.11" fill="#1fb821"/><rect x="63.371428571428574" y="190.11428571428573" width="63.371428571428574" height="63.371428571428574" fill="#ffffff"/><path d="M 95.06 221.8 A 31.69 31.69 0 0 1  126.75 253.49 L 95.06 221.8 A 31.69 31.69 0 0 0 126.75 253.49" fill="#fff36c"/><rect x="126.74285714285715" y="190.11428571428573" width="63.371428571428574" height="63.371428571428574" fill="#ffffff"/><path d="M 158.43 221.8 A 31.69 31.69 0 0 1  190.12 190.11 L 158.43 221.8 A 31.69 31.69 0 0 0 190.12 190.11" fill="#fff7a2"/><rect x="0" y="253.4857142857143" width="63.371428571428574" height="63.371428571428574" fill="#ffffff"/><path d="M 31.69 316.86 A 31.69 31.69 0 0 1  63.38 285.17 L 31.69 316.86 A 31.69 31.69 0 0 0 63.38 285.17" fill="#fff7a5"/><path d="M 63.37 253.49 A 63.37 63.37 0 0 1  126.74 316.86 L 63.37 253.49 A 63.37 63.37 0 0 0 126.74 316.86" fill="#90dc91"/><rect x="190.11428571428573" y="253.4857142857143" width="63.371428571428574" height="63.371428571428574" fill="#ffffff"/><path d="M 190.11 285.18 A 31.69 31.69 0 0 1  221.8 253.49 L 190.11 285.18 A 31.69 31.69 0 0 0 221.8 253.49" fill="#fff693"/><path d="M 221.8 253.49 A 31.69 31.69 0 0 1  253.49 285.18 L 221.8 253.49 A 31.69 31.69 0 0 0 253.49 285.18" fill="#fffdeb"/><path d="M 221.8 316.86 A 31.69 31.69 0 0 1  253.49 285.17 L 221.8 316.86 A 31.69 31.69 0 0 0 253.49 285.17" fill="#8bda8c"/><rect x="697.0857142857143" y="253.4857142857143" width="63.371428571428574" height="63.371428571428574" fill="#ffffff"/><path d="M 697.09 285.17 A 31.69 31.69 0 0 1  728.7800000000001 316.86 L 697.09 285.17 A 31.69 31.69 0 0 0 728.7800000000001 316.86" fill="#37bf3a"/><rect x="0" y="316.8571428571429" width="63.371428571428574" height="63.371428571428574" fill="#ffffff"/><path d="M 63.37 316.86 A 63.37 63.37 0 0 1  126.74 380.23 L 63.37 316.86 A 63.37 63.37 0 0 0 126.74 380.23" fill="#61cd63"/><path d="M 253.49 316.86 A 63.37 63.37 0 0 1  316.86 380.23 L 253.49 316.86 A 63.37 63.37 0 0 0 316.86 380.23" fill="#def5df"/><rect x="190.11428571428573" y="380.22857142857146" width="63.371428571428574" height="63.371428571428574" fill="#ffffff"/><path d="M 190.11 443.6 A 31.69 31.69 0 0 1  221.8 411.91 L 190.11 443.6 A 31.69 31.69 0 0 0 221.8 411.91" fill="#fffbcd"/><rect x="253.4857142857143" y="380.22857142857146" width="63.371428571428574" height="63.371428571428574" fill="#ffffff"/><path d="M 253.49 411.92 A 31.69 31.69 0 0 1  285.18 380.23 L 253.49 411.92 A 31.69 31.69 0 0 0 285.18 380.23" fill="#fffcdd"/><path d="M 285.17 411.92 A 31.69 31.69 0 0 1  316.86 380.23 L 285.17 411.92 A 31.69 31.69 0 0 0 316.86 380.23" fill="#28bb2b"/><path d="M 253.49 411.91 A 31.69 31.69 0 0 1  285.18 443.6 L 253.49 411.91 A 31.69 31.69 0 0 0 285.18 443.6" fill="#fff269"/><rect x="380.22857142857146" y="380.22857142857146" width="63.371428571428574" height="63.371428571428574" fill="#ffffff"/><path d="M 380.23 411.92 A 31.69 31.69 0 0 1  411.92 380.23 L 380.23 411.92 A 31.69 31.69 0 0 0 411.92 380.23" fill="#fff9b1"/><rect x="633.7142857142858" y="380.22857142857146" width="63.371428571428574" height="63.371428571428574" fill="#ffffff"/><path d="M 665.4 380.23 A 31.69 31.69 0 0 1  697.09 411.92 L 665.4 380.23 A 31.69 31.69 0 0 0 697.09 411.92" fill="#73d375"/></g></svg>