<svg xmlns="http://www.w3.org/2000/svg" viewBox="0 0 66.79 64.68">
    <path fill-rule="evenodd" clip-rule="evenodd" class="cls-1" d="M.12,0H66.68c.06,0,.11.12.11.18V46.94c0,.11-.05.17-.11.17H.12c-.06,0-.12-.06-.12-.17V.18C0,.12.06,0,.12,0Zm3,3.29H63.68a.13.13,0,0,1,.12.12v40.3a.12.12,0,0,1-.12.11H3.12A.12.12,0,0,1,3,43.71V3.41a.13.13,0,0,1,.12-.12ZM27.67,47.11H39.13a.12.12,0,0,1,.11.12V57.51c0,.12-.05.18-.11.18H27.67c-.06,0-.12-.06-.12-.18V47.23a.13.13,0,0,1,.12-.12ZM15.86,64.68H50.93c.06,0,.06-.06.06-.12V57.75c0-.06,0-.06-.06-.06H15.86c-.06,0-.11,0-.11.06v6.81a.12.12,0,0,0,.11.12ZM33.37,11.34A12.21,12.21,0,0,1,45.59,23.56a12.92,12.92,0,0,1-.94,4.81l-6.93-1.11,1.17,7.22a12.23,12.23,0,1,1-5.52-23.14Zm0,2.06A10.17,10.17,0,0,1,43.59,23.56,10.35,10.35,0,0,1,42.53,28l-4.46-.7a3.57,3.57,0,0,0,.35-1.59,3.09,3.09,0,0,0-.88-2.29A6.32,6.32,0,0,0,34.13,22V18.56A1.85,1.85,0,0,1,35.42,20L38,19.68a3.54,3.54,0,0,0-1.23-2.11,5.27,5.27,0,0,0-2.65-.94V15.8H32.66v.83a4.67,4.67,0,0,0-2.82,1.11,3.18,3.18,0,0,0-1.05,2.41,3.27,3.27,0,0,0,.94,2.41A6,6,0,0,0,32.66,24v3.64a3.06,3.06,0,0,1-1-.76A2.91,2.91,0,0,1,31,25.73l-2.7.23a4.16,4.16,0,0,0,1.47,2.65,4.87,4.87,0,0,0,2.87,1.12v1.58h1.47V29.73a5.62,5.62,0,0,0,3.17-1.36c.18-.17.36-.41.53-.58l.71,4.52a9.77,9.77,0,0,1-5.17,1.41,10.16,10.16,0,1,1,0-20.32Zm-.71,5.1a2.36,2.36,0,0,0-.94.65,1.33,1.33,0,0,0-.35.88,1.21,1.21,0,0,0,.3.88,2.58,2.58,0,0,0,1,.65Zm1.47,9.29a2.48,2.48,0,0,0,1.29-.65A1.58,1.58,0,0,0,35.9,26a1.34,1.34,0,0,0-.42-1,2.57,2.57,0,0,0-1.35-.65ZM47.53,35l-2.94-2.88,2.23-2.23-7.63-1.17,1.17,7.63,2.23-2.23,2.88,2.94Z"/>
</svg>