<svg xmlns="http://www.w3.org/2000/svg" viewBox="0 0 70.02 64.27">
    <path fill-rule="evenodd" clip-rule="evenodd" class="cls-1" d="M9.05,10.34h7V21.62h16.5V10.34H61a3.22,3.22,0,0,1,3.23,3.23V46.11A3.25,3.25,0,0,1,61,49.34H9.05a3.22,3.22,0,0,1-3.23-3.23V13.57a3.18,3.18,0,0,1,3.23-3.23ZM3.7,46.17H66.32a3.72,3.72,0,0,1,3.7,3.7V60.56a3.73,3.73,0,0,1-3.7,3.71H3.7A3.73,3.73,0,0,1,0,60.56V49.87a3.72,3.72,0,0,1,3.7-3.7Zm3.7,2.65H62.62a2.62,2.62,0,0,1,2.59,2.64V59a2.62,2.62,0,0,1-2.59,2.64H7.4A2.61,2.61,0,0,1,4.82,59V51.46A2.61,2.61,0,0,1,7.4,48.82ZM33,52.93h4.11a.93.93,0,0,1,.94.94v2.7a.93.93,0,0,1-.94.94H33a.93.93,0,0,1-.94-.94v-2.7a.93.93,0,0,1,.94-.94ZM11.63,31H36.72V42.35H11.63Zm1-12.75H16v3.35h16.5V18.27H36v4.11H12.63ZM16.68,0H31.9V20.91H16.68Zm1.59,19.27H28.43v.53H18.27Zm0-1.24H28.43v.53H18.27Zm0-1.23H28.43v.53H18.27Zm0-1.18h8.58v.53H18.27Zm0-1.23h5.29V15H18.27Zm0-1.17H29.19v.52H18.27Zm0-1.18H29.9v.53H18.27Zm0-1.23h8.58v.53H18.27Zm0-1.18H29.9v.53H18.27Zm0-1.17H26.9V9H18.27Zm0-1.24H28.9v.53H18.27Zm0-1.17h7.16v.53H18.27Zm0-1.23h10v.52h-10Zm0-1.18h8.22v.53H18.27Zm0-1.17H29.9V3H18.27Zm0-1.24H29.9v.53H18.27Zm21,14.63h5.52v5.52H39.24Zm0,7h5.52v5.52H39.24Zm0,7h5.52v5.52H39.24Zm0,7h5.52v5.52H39.24Zm7.58-21h5.52v5.52H46.82Zm0,7h5.52v5.52H46.82Zm0,7h5.52v5.52H46.82Zm0,7h5.52v5.52H46.82Zm7.57-21h5.53v5.52H54.39Zm0,7h5.53v5.52H54.39Zm0,7h5.53v5.52H54.39Zm0,7h5.53v5.52H54.39Z"/>
</svg>