<svg xmlns="http://www.w3.org/2000/svg" data-name="Layer 1" viewBox="0 0 128 128"><path d="M98.00274 113.99976H94.00262a7.01045 7.01045 0 0 0-6.70538 5H84.725c-.02448-.08563-.04248-.17218-.07025-.25732a7.05386 7.05386 0 0 0-3.58508-4.14258l-3.67975-1.83838a7.16352 7.16352 0 0 0-2.36426-.70007l-.1814-2.13031a6.98392 6.98392 0 0 0 4.33472-6.68475l-.12207-3.99854a7.002 7.002 0 0 0-5.20422-6.55267l-.11041-3.58252a6.983 6.983 0 0 0 3.65936-7.88239L76.468 77.34058a7.01413 7.01413 0 0 0-7.77673-5.296l-1.17474-2.62921a7.01007 7.01007 0 0 0 1.8302-8.16168l-1.6319-3.65283A6.98951 6.98951 0 0 0 57.162 54.83154l-2.18152-1.62207a6.96414 6.96414 0 0 0-5.72125-8.95776L45.29815 43.696a6.98178 6.98178 0 0 0-7.92078 7.74548l-1.92859 1.1571a6.99652 6.99652 0 0 0-11.44812 5.40112V60.34a3.99257 3.99257 0 0 0-2.42224 2.8548L20.29614 69.097A30.59384 30.59384 0 0 0 1.00024 97.6684c.067 16.72473 13.52454 30.33136 29.99921 30.33136h.00146l.122-.00024a30.268 30.268 0 0 0 29.87854-30.5769 30.58564 30.58564 0 0 0-19.524-28.41241l-1.32935-5.89093A3.98749 3.98749 0 0 0 38.001 60.41846v-2.4187A6.97605 6.97605 0 0 0 37.686 55.9212l1.29889-.7793a6.94462 6.94462 0 0 0 4.36694 2.41791l3.96106.55566a6.95833 6.95833 0 0 0 5.45654-1.56531l1.99115 1.48041a6.95 6.95 0 0 0 .17163 5.28168l1.6319 3.65234a6.91674 6.91674 0 0 0 7.29926 4.08112l1.19122 2.66608a7.00362 7.00362 0 0 0-2.19928 6.8988l.93457 3.88965a6.98434 6.98434 0 0 0 5.97192 5.311l.09271 3.00653A7.00393 7.00393 0 0 0 65.06237 99.678l.123 3.998a7.01073 7.01073 0 0 0 5.67786 6.65759l.20227 2.37683a7.07591 7.07591 0 0 0-3.28143 3.156 6.96164 6.96164 0 0 0-.43457 5.39063 7.05386 7.05386 0 0 0 3.58508 4.14258l3.67975 1.83838a7.21109 7.21109 0 0 0 9.60577-3.105 7.095 7.095 0 0 0 .45972-1.1333h2.61737a7.01045 7.01045 0 0 0 6.70538 5h4.00012a7 7 0 1 0 0-14zm-70.002-56a3.00329 3.00329 0 0 1 3.00006-3 2.949 2.949 0 0 1 .38165.03857l-.41095.24658a2.00005 2.00005 0 1 0 2.05865 3.42969l.9707-.5824v1.87671l-6.00012.02472zM25.4873 64.04395l10.75885-.04419L37.184 68.156H24.594zm7.16064 53.75244l.00708 1.7384a1.45382 1.45382 0 1 1-2.90759.01166l-.00708-1.73834A8.97883 8.97883 0 0 1 23.25384 114.14a1.66757 1.66757 0 0 1 1.39661-2.551 1.83659 1.83659 0 0 1 1.3786.67749 7.19038 7.19038 0 0 0 5.13641 2.33838c2.84515-.01141 4.21716-.94794 4.20929-2.87268-.01849-4.5321-11.421-2.40643-11.45154-9.88763-.01129-2.7627 1.72925-5.16022 5.729-5.611l-.0072-1.76935a1.45382 1.45382 0 1 1 2.90759-.01172L32.56 96.25323a8.01538 8.01538 0 0 1 5.63843 2.77106 1.78113 1.78113 0 0 1 .317.99213 1.6687 1.6687 0 0 1-1.68115 1.65173 2.076 2.076 0 0 1-1.34735-.67719 6.48339 6.48339 0 0 0-4.38367-1.62781c-2.59467.0105-3.559 1.2251-3.55389 2.4668.01666 4.06641 11.42 2.12714 11.45166 9.88763C39.01495 115.13239 36.8352 117.37622 32.64794 117.79639zM38.271 72.156a26.64859 26.64859 0 0 1 12.02264 43.12372A21.00036 21.00036 0 1 0 11.70336 115.27 26.65236 26.65236 0 0 1 23.7052 72.156zM48.39685 50.8064a1.99959 1.99959 0 0 0 .41113 2.79834l.50909.37848a2.96925 2.96925 0 0 1-1.44757.17133l-3.96106-.55566a2.97368 2.97368 0 0 1-1.37933-.5835l.5014-.30078a1.99583 1.99583 0 0 0-1.22272-3.69916 3 3 0 0 1 2.51471-1.38776 3.04223 3.04223 0 0 1 .41895.0293l3.96106.55566a3.00281 3.00281 0 0 1 2.4715 2.16974A1.99876 1.99876 0 0 0 48.39685 50.8064zM65.61444 65.4657a1.98933 1.98933 0 0 0-3.42322 1.52942 2.73863 2.73863 0 0 1-1.97467-1.66187v-.00049l-1.6319-3.65283a2.98441 2.98441 0 0 1-.24207-.986l.52234.38837a2 2 0 0 0 2.38678-3.21L60.77 57.51416a2.95785 2.95785 0 0 1 3.2923 1.719l1.6319 3.65186A2.98376 2.98376 0 0 1 65.61444 65.4657zM69.62988 85.531l.00525.17078a3.0319 3.0319 0 0 1-.60681-.27869 2.98314 2.98314 0 0 1-1.34967-1.85693v-.00049l-.93457-3.88916a2.97348 2.97348 0 0 1 .16327-1.86328 1.99111 1.99111 0 0 0 3.59479-1.70776 2.99682 2.99682 0 0 1 2.077 2.16919l.93365 3.88965a2.97213 2.97213 0 0 1-.28351 2.11383A1.99611 1.99611 0 0 0 69.62988 85.531zm.88257 20.40363a2.98792 2.98792 0 0 1-1.32886-2.38165l-.123-3.998A2.74512 2.74512 0 0 1 70.114 97.19788a1.9956 1.9956 0 0 0 1.85284 1.26624c.02051 0 .042-.00049.0625-.001a1.99435 1.99435 0 0 0 1.83313-1.3808 3.01187 3.01187 0 0 1 .25287.19476 2.98036 2.98036 0 0 1 .94342 2.09326l.12207 3.99854a2.97645 2.97645 0 0 1-.75793 2.0766 1.99407 1.99407 0 0 0-3.91046.48914zm9.48981 17.06512h.15057a3.2055 3.2055 0 0 1-3.75128.66016l-3.67981-1.83838a3.081 3.081 0 0 1-1.56934-1.80664 2.99492 2.99492 0 0 1 .18652-2.31689c.03943-.07648.08777-.14532.13263-.21716l.03729.43835a2.00056 2.00056 0 0 0 1.99127 1.83057c.05664 0 .11426-.00244.17188-.00732a1.99982 1.99982 0 0 0 1.8233-2.16211l-.11237-1.31995c.07269.02985.14838.04358.21979.07922l3.67981 1.83838a3.12046 3.12046 0 0 1 1.0224.82178h-.30267a2 2 0 1 0 0 4zm20.00055 0h.21973a2.9818 2.9818 0 0 1-2.21979 1H94.00262a2.98294 2.98294 0 0 1-2.32343-1.12555 1.98916 1.98916 0 0 0 0-3.7489 2.98294 2.98294 0 0 1 2.32343-1.12555h4.00012a2.9818 2.9818 0 0 1 2.21979 1h-.21973a2 2 0 1 0 0 4zM110.00213 25.99976a13 13 0 1 0-12.99939-13.001A13.01566 13.01566 0 0 0 110.00213 25.99976zM116.14331 80.33972a4.05739 4.05739 0 0 0 .23-.34h-.01A3.96572 3.96572 0 0 1 116.14331 80.33972z"/><path d="M126.98358 125.74976s-5.45013-42.47-5.45013-42.48a1.914 1.914 0 0 0 .47-1.27v-46a13.91667 13.91667 0 0 0-2.98608-8.61328 16.91013 16.91013 0 0 1-3.74719 1.7677 9.95321 9.95321 0 0 1 2.73322 6.84558v44h-1.63007a9.40033 9.40033 0 0 1-2.90015 3 9.93176 9.93176 0 0 1-1.91 1h6.0401l5.42023 42.25a2.00359 2.00359 0 0 0 1.98 1.75 2.10321 2.10321 0 0 0 .25-.02A1.99278 1.99278 0 0 0 126.98358 125.74976zM107.30743 93.84924l1.22522-9.18909c-.21643.014-.43048.04712-.64679.04712a9.84973 9.84973 0 0 1-3.31726-.58234l-3.50885 26.31592a10.968 10.968 0 0 1 3.7749 1.95325l1.11127-8.33374 6.12756 22.46576a2.00025 2.00025 0 0 0 3.8595-1.05273zM88.35882 111.5755a10.90789 10.90789 0 0 1 3.92834-1.42816l-1.5946-26.14758H104.2229a9.63532 9.63532 0 0 1-1.90094-.99866 10.31467 10.31467 0 0 1-2.46918-2.35138c-.15-.2-.29-.41-.44-.65H90.00256v-44a10.01536 10.01536 0 0 1 9.11761-9.9552 17.13847 17.13847 0 0 1-3.13788-3.45 14.0197 14.0197 0 0 0-9.97986 13.40521v46a2.01782 2.01782 0 0 0 .64 1.46z"/><path d="M108.17883,76.68628a2.00644,2.00644,0,0,1-2.26666-1.67725l-5.42889-39.03467a1.99955,1.99955,0,1,0-3.961.55078l5.43079,39.04834a6.00014,6.00014,0,0,0,11.87732-1.71338l-4.84589-35.62988a1.99972,1.99972,0,1,0-3.963.53906l4.84778,35.64844A2.00365,2.00365,0,0,1,108.17883,76.68628Z"/></svg>