<svg xmlns="http://www.w3.org/2000/svg" viewBox="0 0 31.55 56.63">
    <path fill-rule="evenodd" clip-rule="evenodd" class="cls-1" d="M2.06,0H29.49a2,2,0,0,1,2.06,2.06V54.57a2.08,2.08,0,0,1-2.06,2.06H2.06A2.08,2.08,0,0,1,0,54.57V2.06A2,2,0,0,1,2.06,0Zm26.2,4.05V47.7H3.35V4.05ZM13.75,49.93h4.11a.26.26,0,0,1,.23.24v3.64a.27.27,0,0,1-.23.3H13.75a.28.28,0,0,1-.3-.3V50.17a.27.27,0,0,1,.3-.24ZM6.29,16.57h19V35.42h-19Zm1.52,1.29H13.1v5.29H7.81Zm4.59,9.93H13v.58H12.4Zm-.89,0h.59v.58h-.59Zm-.88,0h.59v.58h-.59Zm-.94,0h.65v.58H9.69Zm-.88,0H9.4v.58H8.81Zm-.94,0h.65v.58H7.87ZM23.5,33h.59v.59H23.5Zm0-.88h.59v.58H23.5Zm-.94.88h.64v.59h-.64Zm0-.88h.64v.58h-.64Zm-.88.88h.59v.59h-.59Zm0-.88h.59v.58h-.59Zm-.94,0h.64v.58h-.64Zm-.88.88h.58v.59h-.58Zm0-.88h.58v.58h-.58Zm-.94.88h.64v.59h-.64Zm0-.88h.64v.58h-.64Zm4.58-.88h.59v.64H23.5Zm0-1.71h.59v.65H23.5Zm0-.88h.59v.65H23.5Zm0-.82h.59v.58H23.5Zm-.94,3.41h.64v.64h-.64Zm0-.83h.64V31h-.64Zm0-.88h.64v.65h-.64Zm0-.88h.64v.65h-.64Zm0-.82h.64v.58h-.64Zm-.88,3.41h.59v.64h-.59Zm0-.83h.59V31h-.59Zm0-.88h.59v.65h-.59Zm0-.88h.59v.65h-.59Zm0-.82h.59v.58h-.59Zm-.94,3.41h.64v.64h-.64Zm0-1.71h.64v.65h-.64Zm0-.88h.64v.65h-.64Zm0-.82h.64v.58h-.64Zm-.88,2.58h.58V31h-.58Zm0-.88h.58v.65h-.58Zm0-.88h.58v.65h-.58Zm0-.82h.58v.58h-.58Zm-.94,3.41h.64v.64h-.64Zm0-.83h.64V31h-.64Zm0-1.76h.64v.65h-.64Zm0-.82h.64v.58h-.64Zm4.64-.88h.58v.64h-.58Zm0-.83h.58v.59h-.58Zm0-.88h.58v.59h-.58Zm0-.88h.58V25h-.58Zm0-.82h.58v.59h-.58Zm-.94,2.58h.64v.59h-.64Zm0-.88h.64v.59h-.64Zm0-.88h.64V25h-.64Zm0-.82h.64v.59h-.64Zm-.88,3.41h.58v.64h-.58Zm0-.83h.58v.59h-.58Zm0-.88h.58v.59h-.58Zm0-.88h.58V25h-.58Zm0-.82h.58v.59h-.58Zm-.94,2.58h.64v.59H20.8Zm0-.88h.64v.59H20.8Zm0-1.7h.64v.59H20.8Zm-.89,3.41h.59v.64h-.59Zm0-.83h.59v.59h-.59Zm0-.88h.59v.59h-.59Zm0-.88h.59V25h-.59Zm0-.82h.59v.59h-.59ZM19,26.08h.59v.59H19Zm0-.88h.59v.59H19Zm0-.88h.59V25H19ZM12.4,26.91H13v.64H12.4Zm0-.83H13v.59H12.4Zm0-.88H13v.59H12.4Zm0-.88H13V25H12.4Zm0-.82H13v.59H12.4Zm-.89,3.41h.59v.64h-.59Zm0-.83h.59v.59h-.59Zm0-1.76h.59V25h-.59Zm0-.82h.59v.59h-.59Zm-.88,3.41h.59v.64h-.59Zm0-.83h.59v.59h-.59Zm0-.88h.59v.59h-.59Zm0-.88h.59V25h-.59Zm-.94,2.59h.65v.64H9.69Zm0-1.71h.65v.59H9.69Zm0-.88h.65V25H9.69Zm0-.82h.65v.59H9.69Zm-.88,3.41H9.4v.64H8.81Zm0-.83H9.4v.59H8.81Zm0-.88H9.4v.59H8.81Zm0-.88H9.4V25H8.81Zm0-.82H9.4v.59H8.81Zm-.94,3.41h.65v.64H7.87Zm0-.83h.65v.59H7.87Zm0-.88h.65v.59H7.87Zm0-1.7h.65v.59H7.87ZM18,32.08h.58v.58H18Zm0-.88h.58v.64H18Zm0-.83h.58V31H18Zm0-.88h.58v.65H18Zm0-.88h.58v.65H18Zm0-.82h.58v.58H18Zm0-1.71h.58v.59H18Zm0-.88h.58v.59H18Zm0-.88h.58V25H18Zm0-.82h.58v.59H18Zm0-.88h.58v.59H18Zm0-.88h.58v.64H18Zm0-.83h.58v.59H18ZM18,20h.58v.59H18Zm0-.88h.58v.65H18Zm0-.82h.58v.59H18ZM17.09,33h.65v.59h-.65Zm0-.88h.65v.58h-.65Zm0-.88h.65v.64h-.65Zm0-.83h.65V31h-.65Zm0-1.76h.65v.65h-.65Zm0-.82h.65v.58h-.65Zm0-.88h.65v.64h-.65Zm0-.83h.65v.59h-.65Zm0-1.76h.65V25h-.65Zm0-.82h.65v.59h-.65Zm0-.88h.65v.59h-.65Zm0-.88h.65v.64h-.65Zm0-.83h.65v.59h-.65Zm0-1.76h.65v.65h-.65Zm0-.82h.65v.59h-.65ZM16.21,33h.59v.59h-.59Zm0-.88h.59v.58h-.59Zm0-1.71h.59V31h-.59Zm0-.88h.59v.65h-.59Zm0-1.7h.59v.58h-.59Zm0-.88h.59v.64h-.59Zm0-.83h.59v.59h-.59Zm0-.88h.59v.59h-.59Zm0-.88h.59V25h-.59Zm0-.82h.59v.59h-.59Zm0-.88h.59v.59h-.59Zm0-1.71h.59v.59h-.59Zm0-.88h.59v.59h-.59Zm0-.88h.59v.65h-.59Zm0-.82h.59v.59h-.59ZM15.33,33h.59v.59h-.59Zm0-.88h.59v.58h-.59Zm0-.88h.59v.64h-.59Zm0-.83h.59V31h-.59Zm0-.88h.59v.65h-.59Zm0-.88h.59v.65h-.59Zm0-.82h.59v.58h-.59Zm0-1.71h.59v.59h-.59Zm0-.88h.59v.59h-.59Zm0-.88h.59V25h-.59Zm0-.82h.59v.59h-.59Zm0-.88h.59v.59h-.59Zm0-1.71h.59v.59h-.59Zm0-.88h.59v.59h-.59Zm0-.88h.59v.65h-.59Zm0-.82h.59v.59h-.59ZM14.39,33H15v.59h-.65Zm0-.88H15v.58h-.65Zm0-.88H15v.64h-.65Zm0-.83H15V31h-.65Zm0-.88H15v.65h-.65Zm0-.88H15v.65h-.65Zm0-.82H15v.58h-.65Zm0-.88H15v.64h-.65Zm0-.83H15v.59h-.65Zm0-2.58H15v.59h-.65Zm0-.88H15v.59h-.65Zm0-.88H15v.64h-.65Zm0-.83H15v.59h-.65Zm0-1.76H15v.65h-.65Zm0-.82H15v.59h-.65Zm-.88,13.75h.59v.58h-.59Zm0-.88h.59v.64h-.59Zm0-1.71h.59v.65h-.59Zm0-.88h.59v.65h-.59Zm0-.82h.59v.58h-.59Zm0-1.71h.59v.59h-.59Zm0-.88h.59v.59h-.59Zm0-.88h.59V25h-.59Zm0-.82h.59v.59h-.59Zm0-1.76h.59v.64h-.59Zm0-.83h.59v.59h-.59Zm0-.88h.59v.59h-.59Zm0-.88h.59v.65h-.59Zm0-.82h.59v.59h-.59ZM9.16,30h2.59v2.59H9.16ZM7.81,28.61H13.1V33.9H7.81Zm.83.76h3.64v3.7H8.64ZM20.15,19h2.94V22H20.15ZM19,17.86h5.29v5.29H19Zm.83.82h3.64v3.7H19.8Zm-10.64.53h2.59v2.58H9.16Zm-.52-.53h3.64v3.7H8.64Z"/>
</svg>