<svg xmlns="http://www.w3.org/2000/svg" viewBox="0 0 41.12 69.79">
    <path fill-rule="evenodd" clip-rule="evenodd" class="cls-1" d="M41,16.1l.11.11H41a3,3,0,0,1,.12.77V67.26a2.81,2.81,0,0,1-3,2.53h-35A2.81,2.81,0,0,1,0,67.26V17a3,3,0,0,1,.12-.77H.06l.12-.11c.29-.71,8.81-7,10.1-8L20.56,0,30.78,8.11c1.35,1,9.87,7.28,10.17,8ZM20.56,4.88a2.88,2.88,0,1,1-2.88,2.87,2.88,2.88,0,0,1,2.88-2.87Zm0,22.08a12.08,12.08,0,1,1-12,12.1,12.07,12.07,0,0,1,12-12.1ZM17.33,33.9c-1.47,0-2.41,1.35-2.41,3.11s1,3,2.41,3c1.23,0,2.41-1.06,2.41-3.12,0-1.64-.77-3-2.41-3Zm0,1.11c.71,0,.94.88.94,1.94s-.29,2-.94,2-1-.83-1-1.94c0-.76.18-2,1-2Zm6.52,3c-1.47,0-2.47,1.35-2.47,3.11s1,3.06,2.41,3.06S26.2,43.12,26.2,41c0-1.58-.71-3-2.35-3Zm0,1.11c.71,0,.94.89.94,1.94s-.29,2-.94,2-1-.82-1-2c0-.94.24-1.94,1-1.94ZM22.79,33.9,17.21,44.18h1.12L23.91,33.9Z"/>
</svg>