<svg xmlns="http://www.w3.org/2000/svg" viewBox="0 0 66.56 58.98">
    <path fill-rule="evenodd" clip-rule="evenodd" class="cls-1" d="M16.27,15.57H59.51v6.22a7.3,7.3,0,0,0,0,14.52v2.23l-43.24.06ZM37.77,20a7.05,7.05,0,1,1-7,7,7,7,0,0,1,7-7ZM37.3,29.9V27.38a4,4,0,0,1-2-1,2.18,2.18,0,0,1-.65-1.65,2.26,2.26,0,0,1,.71-1.7,3.56,3.56,0,0,1,2-.77v-.58h1v.58a3.71,3.71,0,0,1,1.82.65A2.51,2.51,0,0,1,41,24.38l-1.82.18a1.27,1.27,0,0,0-.88-.94V26a4.59,4.59,0,0,1,2.35,1,2.19,2.19,0,0,1,.65,1.59,2.77,2.77,0,0,1-.76,1.88,4.12,4.12,0,0,1-2.24.88v1.12h-1V31.37a3.87,3.87,0,0,1-2-.76,3,3,0,0,1-1-1.83l1.82-.23a1.57,1.57,0,0,0,.47.82,1.62,1.62,0,0,0,.7.53Zm0-6.28a1,1,0,0,0-.7.41,1,1,0,0,0-.24.58,1,1,0,0,0,.24.65,1.25,1.25,0,0,0,.7.41Zm1,6.4a1.61,1.61,0,0,0,.88-.47,1,1,0,0,0,.36-.77,1,1,0,0,0-.3-.7,1.53,1.53,0,0,0-.94-.41Zm-19-3.59H29v1.24H19.27Zm27.49,0H53.4a10.06,10.06,0,0,0-.35,1.24H46.76Zm8.75-9.75h3v.71h-3Zm2.41,3.47V16.68h.59v3.47ZM20.15,16.68h-3v.71h3Zm-2.41,3.47V16.68h-.59v3.47ZM55.51,37.54h3V36.13c-.23-.06-.41-.12-.59-.18v.94H55.51Zm-35.36,0h-3v-.65h3Zm-2.41-3.41v3.41h-.59V34.13ZM50.41,43a6.35,6.35,0,1,1-6.35,6.35A6.36,6.36,0,0,1,50.41,43Zm0,1.06a5.29,5.29,0,1,1-5.29,5.29,5.26,5.26,0,0,1,5.29-5.29ZM50,51.46V49.58a3.06,3.06,0,0,1-1.52-.76A1.89,1.89,0,0,1,48,47.58a1.72,1.72,0,0,1,.52-1.29A2.4,2.4,0,0,1,50,45.76v-.47h.77v.47a2.6,2.6,0,0,1,1.41.47,2.46,2.46,0,0,1,.64,1.06l-1.41.18a.88.88,0,0,0-.64-.71v1.76a3,3,0,0,1,1.76.77A1.43,1.43,0,0,1,53,50.46a1.7,1.7,0,0,1-.59,1.35,2.34,2.34,0,0,1-1.64.71v.88H50v-.88A2.84,2.84,0,0,1,48.52,52a2.38,2.38,0,0,1-.76-1.41l1.41-.12a1.48,1.48,0,0,0,.29.59,1.69,1.69,0,0,0,.53.41Zm0-4.76a1,1,0,0,0-.47.35.72.72,0,0,0-.17.48.75.75,0,0,0,.64.76Zm.77,4.82a2.08,2.08,0,0,0,.7-.29.85.85,0,0,0,.24-.59.57.57,0,0,0-.24-.53,1,1,0,0,0-.7-.35ZM6.35,23.32A6.35,6.35,0,1,1,0,29.67a6.37,6.37,0,0,1,6.35-6.35Zm0,1.06a5.29,5.29,0,1,1-5.29,5.29,5.32,5.32,0,0,1,5.29-5.29ZM6,31.78V29.9a2.89,2.89,0,0,1-1.53-.76,1.72,1.72,0,0,1-.52-1.24,1.76,1.76,0,0,1,.59-1.29A2.22,2.22,0,0,1,6,26.08v-.47h.76v.47a2.25,2.25,0,0,1,1.36.47,1.79,1.79,0,0,1,.65,1.06l-1.36.18a.88.88,0,0,0-.65-.71v1.76a3.08,3.08,0,0,1,1.77.77A1.64,1.64,0,0,1,9,30.78a1.7,1.7,0,0,1-.59,1.35,2.47,2.47,0,0,1-1.65.71v.82H6v-.82a2.62,2.62,0,0,1-1.53-.59,2.3,2.3,0,0,1-.7-1.35l1.35-.12a1.28,1.28,0,0,0,.35.59,1.69,1.69,0,0,0,.53.41ZM6,27a.88.88,0,0,0-.53.36.68.68,0,0,0-.17.47.69.69,0,0,0,.17.41,1.33,1.33,0,0,0,.53.35Zm.76,4.82a1.71,1.71,0,0,0,.65-.29A1,1,0,0,0,7.7,31a.74.74,0,0,0-.24-.53,1,1,0,0,0-.71-.35ZM19.21,46.29a6.35,6.35,0,1,1-6.34,6.35,6.36,6.36,0,0,1,6.34-6.35Zm0,1.06a5.29,5.29,0,1,1-5.29,5.29,5.32,5.32,0,0,1,5.29-5.29Zm-.35,7.4V52.87a2.88,2.88,0,0,1-1.53-.76,1.65,1.65,0,0,1-.47-1.24,1.73,1.73,0,0,1,.53-1.29,2.36,2.36,0,0,1,1.47-.53v-.47h.76v.47a2.19,2.19,0,0,1,1.35.47,1.7,1.7,0,0,1,.65,1.06l-1.35.18a.89.89,0,0,0-.65-.71v1.76a3.64,3.64,0,0,1,1.76.71,1.6,1.6,0,0,1,.47,1.23,1.69,1.69,0,0,1-.58,1.35,2.52,2.52,0,0,1-1.65.71v.82h-.76v-.82a2.57,2.57,0,0,1-1.53-.59,2.25,2.25,0,0,1-.7-1.35L18,53.75a1,1,0,0,0,.29.59,1.58,1.58,0,0,0,.53.41Zm0-4.76a1.1,1.1,0,0,0-.53.35.67.67,0,0,0-.18.47.65.65,0,0,0,.18.42,1.26,1.26,0,0,0,.53.35Zm.76,4.82a1.46,1.46,0,0,0,.65-.29.94.94,0,0,0,.29-.59.58.58,0,0,0-.23-.53,1,1,0,0,0-.71-.35ZM39.59,0a6.35,6.35,0,1,1-6.34,6.35A6.36,6.36,0,0,1,39.59,0Zm0,1.06a5.29,5.29,0,1,1-5.28,5.29,5.27,5.27,0,0,1,5.28-5.29Zm-.35,7.4V6.58a2.89,2.89,0,0,1-1.52-.76,1.69,1.69,0,0,1-.53-1.24,1.54,1.54,0,0,1,.58-1.23,2.3,2.3,0,0,1,1.47-.59V2.29H40v.47a3,3,0,0,1,1.35.47A2,2,0,0,1,42,4.35l-1.35.11a1,1,0,0,0-.64-.7V5.52a3.49,3.49,0,0,1,1.76.77,1.64,1.64,0,0,1,.47,1.17,2.06,2.06,0,0,1-.59,1.41A3.31,3.31,0,0,1,40,9.58v.82h-.77V9.58A3,3,0,0,1,37.72,9,2.19,2.19,0,0,1,37,7.64l1.41-.18a1.47,1.47,0,0,0,.35.65.91.91,0,0,0,.53.35Zm0-4.7a1.27,1.27,0,0,0-.53.29.85.85,0,0,0-.17.47.8.8,0,0,0,.17.47,1.17,1.17,0,0,0,.53.3ZM40,8.58a1.44,1.44,0,0,0,.64-.35.76.76,0,0,0,.24-.59.91.91,0,0,0-.18-.53,1.89,1.89,0,0,0-.7-.3Zm20.2,14.1a6.37,6.37,0,1,1-6.34,6.4,6.37,6.37,0,0,1,6.34-6.4Zm0,1.05A5.32,5.32,0,1,1,54.93,29a5.3,5.3,0,0,1,5.28-5.29Zm-.41,7.46V29.25a2.64,2.64,0,0,1-1.52-.76,1.65,1.65,0,0,1-.48-1.23A1.73,1.73,0,0,1,58.33,26a2.59,2.59,0,0,1,1.47-.58V25h.83v.42A2.54,2.54,0,0,1,62,26,1.85,1.85,0,0,1,62.62,27l-1.35.18a1.25,1.25,0,0,0-.64-.77V28.2a5.08,5.08,0,0,1,1.76.76,1.81,1.81,0,0,1,.47,1.24,1.79,1.79,0,0,1-.65,1.35,3.08,3.08,0,0,1-1.58.7v.82H59.8v-.82a2.38,2.38,0,0,1-1.47-.59,2.07,2.07,0,0,1-.76-1.35L59,30.2a2,2,0,0,0,.29.58,3,3,0,0,0,.53.41Zm0-4.76a1.35,1.35,0,0,0-.47.3.82.82,0,0,0-.17.47.7.7,0,0,0,.17.47,1.11,1.11,0,0,0,.47.35Zm.83,4.82a1.35,1.35,0,0,0,.64-.35.68.68,0,0,0,.24-.59.54.54,0,0,0-.24-.47,1,1,0,0,0-.64-.35Z"/>
</svg>