<svg xmlns="http://www.w3.org/2000/svg" viewBox="0 0 60.87 51.52">
    <path fill-rule="evenodd" clip-rule="evenodd" class="cls-1" d="M25,41.06V39.53h1.47v1.53Zm0,3.41V42.94h1.47v1.53ZM46.77.7A.82.82,0,0,0,46,0H.65A.6.6,0,0,0,0,.7L2,15.86c0,.12.06.18.11.29V49.52a2,2,0,0,0,2,2H46.77a2,2,0,0,0,2-2V15.86ZM6.41,15H44.13a.49.49,0,0,0,.47-.53L43,3.29a.68.68,0,0,0-.59-.59H4.59a.46.46,0,0,0-.41.59L5.76,14.51a.7.7,0,0,0,.65.53Zm-1,19.85H17.1a.59.59,0,0,1,.59.59v13a.58.58,0,0,1-.59.59H5.41a.63.63,0,0,1-.58-.59v-13a.63.63,0,0,1,.58-.59ZM5.41,19H17.1a.54.54,0,0,1,.59.53v13.1a.54.54,0,0,1-.59.53H5.41a.57.57,0,0,1-.58-.53V19.56A.58.58,0,0,1,5.41,19ZM19.86,34.89H31.61a.58.58,0,0,1,.53.59v13a.57.57,0,0,1-.53.59H19.86a.58.58,0,0,1-.53-.59v-13a.59.59,0,0,1,.53-.59Zm0-15.86H31.61a.53.53,0,0,1,.53.53v13.1a.52.52,0,0,1-.53.53H19.86a.53.53,0,0,1-.53-.53V19.56a.53.53,0,0,1,.53-.53Zm14.69,0H45.71a.53.53,0,0,1,.53.53v29a.52.52,0,0,1-.53.53H34.55a.53.53,0,0,1-.53-.53v-29a.53.53,0,0,1,.53-.53Zm-9.28,9.75V26.55H23.1v-.88h2.17V23.44h.94v2.23h2.17v.88H26.21v2.23Zm17.51,4.53H37.49v-.94h5.29Zm0,2.41H37.49v-.89h5.29Zm-30,8.51-1.53-1.58L9.7,44.18l-.65-.65L10.58,42,9.05,40.47l.65-.7,1.59,1.58,1.53-1.58.64.65L11.93,42l1.53,1.53Zm1.11-17.68H8.64v-.88h5.29ZM28.38,42.47H23.1v-.94h5.28ZM53.17,12h7.4a.28.28,0,0,1,.3.29v39a.27.27,0,0,1-.3.24h-7.4ZM57,0l1.94,6.05,1.94,6h-7.7l1.94-6Zm0,0,.35,1.06.36,1H56.34l.36-1Z"/>
</svg>