<svg xmlns="http://www.w3.org/2000/svg" viewBox="0 0 49.52 62.45">
    <path fill-rule="evenodd" clip-rule="evenodd" class="cls-1" d="M24,18.39H29a3.23,3.23,0,0,0,1.65-.47c8.22,6.63,18.85,22.85,18.85,31.54,0,11.46-10.63,13-24.32,13S0,60.92,0,49.46C0,40.18,11.05,24.5,19,18a2.58,2.58,0,0,0,1.52.41ZM25.5,33.25H24.09v.82h-.35l-.12.06h-.3l-.06.06h-.17v.06h-.18l-.06.06h-.12l-.11.06-.06.05h-.12l-.06.06h-.06v.06h-.11v.06h-.12v.06H22v.06h-.12v.06h-.06l-.05.06h0l-.06,0h-.06V35h-.06V35h-.06l-.06.06h0l-.06.06h0l-.06.06h0l-.05.06h0l-.06,0h0l-.06.06h0v.06h-.06v.06h-.06v.06h0L21,35.6h0l-.06.12h0l-.06.06h0v.06h0l-.06,0h0V36h0L20.8,36h0v.06h0l-.06.06h0v.06h0v.06h-.06v.06h0v0h0v.06h-.06v.06h0v.06h0v.06h0v.06h0l-.06.05h0v.06h0v.06h0v.06h0V37h0V37h0v.06h0v.06h0v.06h0v.06h0v0h0v.06h0v.06h0v.06h0v.06h0v.06h0v0h0v.06h0v.06h0v.06h0l.06.06h0V38h0V38h0v.06h0l.06.06h0v.06h0v.05h0v.06h0l.06.06h0v.06h0l.06.06h0v.06h0v.06h.05v.06h0v.05h.06v.06h0v.06H21v.06h0L21,39h0V39h.06v.06h0l.06,0h0l.06.06h0v.06h.06v.06h.06v.06h0l.05.06h0l.06.06h0l.06.06h0l.06.05h0l.06.06h.06v.06h.06v.06h.06l.05.06h0l.06.06H22V40H22l.06,0h.06l.06.06h0l.06.06h.05l.06.06h.06l.06.06h.12v.06h.11l.06.06h.06l.06.06H23l.06.06h.12l.06.05h.05l.06.06h.18l.06.06h.18v.06h.17l.06.06h.12v3.35h0L24,44.06H24L23.91,44h-.06v-.06h-.11v-.06h-.12v-.06h0l-.06,0H23.5l-.06-.06h0l-.06-.06h0l-.06-.06h0l-.06-.06h0l-.05-.06h0v-.06h-.06v-.06h-.06V43.3H23v-.06H23v-.06h0v-.06h-.06v-.06h0L22.85,43h0v-.06h-.06v-.06h0v-.05h-.06v-.06h0v-.06h0v-.06h-.05v-.06h0v-.06h0v-.06h-.06v-.06h0v0h0l-2.47.23h0v.06h0v.06h.06v.06h0v.06h0v.05h0v.06h.06V43h0v.06h0v.06h0v.06h.06v.06h0v.06h0l.06.05h0v.06h0v.06h0l.05.06h0v.06h0v.06h0l.06.06h0v.06h0l.06,0h0v.06h0l.06.06h0V44h0l.06.06h0v.06h0l.06.05h0l.06.06h0v.06h0l.11.12h0l.06.06h0v.06H21v.06h0l.06.06h0l.06.06h0l.06,0h0l.12.12h0l.11.06h0V45a.83.83,0,0,0,.24.18h0l.06,0h0l.11.06h0l.06.06H22l.12.06v.06h.12v.06h.11l.06.06h.06l.06,0h.12l.06.06h.05l.06.06H23l.06.06h.12l.06.06h.23v.06h.3l.05.06h.3v1.47H25.5V46h.17v-.06H26l.06-.06h.23l.06-.06h.11l.07-.06h.17V45.7h.18v-.06H27l.05,0h.12l.06-.06h.06l.06-.06h.05l.12-.06h0v-.06h.12v-.06h.06l.06-.06h.06l.11-.11h0l.06-.06H28l.06-.06h.06v-.06h.06v-.06h.06l.06-.06h0l.05-.06h0l.07,0h0v-.06h0v-.06h.06v-.06h.06v-.06h.06v-.06h.06v-.06h0l.06-.06h0v-.06h.06v-.06h0l0-.05h0l.06-.06h0V44h0v-.06H29v-.06h0l.06-.06h0v0h0l.06-.06h0v-.06h0l.06-.06h0v-.06h0v-.06h0v-.06h.06v-.06h0V43.3h0v-.06h0l0-.06h0v-.06h0v-.06h0V43h0l.06-.06h0v-.06h0v-.05h0v-.06h0v-.06h0v-.06h0v-.06h0v-.06h0v-.06h0v-.06h0v0h0v-.07h0v0h0v-.06h0v-.06h0v-.06h0V42h0v-.06h0v-.06h0v-.05h0v-.06h0v-.06h-.06v-.06h0v-.06h0v-.06h0v-.06h0v-.11h0V41.3h0l-.06-.06h0v-.12h-.06v-.06h0V41h-.06v0h0v-.06H29v-.06h0v-.06H29v-.06h0l-.06-.06h0v-.06h0v-.06h-.06v-.05h0l-.06-.06h0l-.06-.06h0V40.3h-.06v-.06h-.06l-.06-.06h0v-.06h0v-.06h-.12V40h-.06v0H28.2l-.06-.06h-.06v-.06H28L28,39.77H27.9l0-.06h-.06l-.06-.06h0l-.06-.06h-.12v-.05h-.11l-.07-.06h0l-.17-.06h0l-.12-.06H27l-.12-.06h0l-.24-.06h0l-.11-.06h0l-.24-.06h0l-.06,0h-.12L26,39h-.06L25.73,39h-.18l-.05-.06h0v-3h.11v0h.12l.06.06h.06V36h.06l.06.06H26v.06h0v.06h.06v.06h.06v.06h.06v0h.06v.06h0l.06.06h0v.06h0l.05.06h0v.06h.07v.05h0v.06h.05v.06h0v.06h0V37h0l.06.06h0v.06h0L29,36.83h0v-.06h0v-.06H29v-.05h0V36.6h0v-.06h0l-.06-.06h0v-.06h0v-.06h0l0,0h0v-.06h0v-.06h0l-.06-.06h0v-.06h0L28.73,36h0V36h0v-.06h-.06v0h0l-.06-.06h0v-.06h0l-.06-.06h0V35.6h-.06v-.06h0l0-.06h0l-.07-.06h0l-.05-.06h0V35.3h-.06v0h0l-.06-.06h-.06v-.06h-.06v-.06H28V35H28V35H27.9l0-.06h0l-.06,0h0l-.06-.06h-.06l-.06-.06h-.06v-.06h-.06l0-.06h-.07v-.06h-.11l-.06-.06h-.06v-.06H27L27,34.37h0l-.12-.06h-.12l-.12-.06H26.5l-.12-.06h0l-.18-.06h-.29l-.06-.06H25.5Zm-1.41,2.53v2.76h0v-.06h-.18v-.06h-.12v-.06h-.12V38.3h-.11v-.06H23.5v-.05h-.06l-.06-.06h0L23.26,38h0L23.21,38h0l-.06-.06h0v-.06h-.06v-.06h0L23,37.71h0v-.06h0l-.06,0h0v-.06h0v-.06h0l-.06-.06h0v-.06h0V37.3h0v-.17h0v-.06h0V37h0V37h0v-.06h0v-.06H23v-.06h0v-.06h0v-.05H23V36.6h0v-.06h.06v-.06h.06v-.06h0v-.06h.06v0h.05v-.06h.06v-.06h.06v-.06h.06l.06-.06h0l.06-.06h.06V36h.05l.12-.06h0a.51.51,0,0,1,.3-.11ZM20.56,10.4H29a1.21,1.21,0,0,1,1.24,1.23v3.76A1.24,1.24,0,0,1,29,16.62H20.56a1.29,1.29,0,0,1-1.29-1.23V11.63a1.26,1.26,0,0,1,1.29-1.23Zm4.23,20.68a9.31,9.31,0,1,1-9.34,9.28,9.3,9.3,0,0,1,9.34-9.28Zm.71,13.15h.11v-.06h.18l.06-.05H26v-.06h.11l.06-.06h.06l.06-.06h.06v-.06h.06l.05-.06h.07v0h.05v-.06h.06v-.06h.06v-.06h.06v-.06h.06v-.06h0l.06-.06h0v-.06h.06V43.3h0l.06-.06h0v-.06h0v-.06H27v-.06h0V43h0v-.06h0v-.06h.06v-.05h0v-.06h0v-.06h0v-.06h0v-.06h0v-.06h0v-.06h0v-.06h0v0H27v-.07h0v0h0v-.06H27v-.06h0v-.06h0L26.91,42h0v-.06h-.06v-.06h0l-.06-.05h0v-.06h-.06l-.06-.06-.06-.06h0v-.06h-.06l-.05-.06h-.07v-.06h-.05l-.06-.06h-.06l-.06,0h-.12V41.3h0L26,41.24h-.12l-.06-.06h-.18l-.06-.06H25.5ZM19.74,8.69,15.92,0H33.66L29.84,8.69A3.78,3.78,0,0,0,29,8.63H20.56a3.56,3.56,0,0,0-.82.06Z"/>
</svg>