<svg xmlns="http://www.w3.org/2000/svg" viewBox="0 0 61.15 33.13">
    <path fill-rule="evenodd" clip-rule="evenodd" class="cls-1" d="M2,0H59.16a2,2,0,0,1,2,2V31.13a2,2,0,0,1-2,2H2a2,2,0,0,1-2-2V2A2,2,0,0,1,2,0ZM3.47,2.47h.47V12.1H3.47Zm.88,0h.47V12.1H4.35Zm.88,0H5.7V12.1H5.23Zm.88,0h.47V12.1H6.11Zm.88,0h.53V12.1H7Zm.88,0H8.4V12.1H7.87Zm1.82,0h.47V12.1H9.69Zm.88,0H11V12.1h-.47Zm.88,0h.48V12.1h-.48Zm.89,0h.47V12.1h-.47Zm.88,0h.53V12.1h-.53Zm.88,0h.53V12.1H14.1Zm.94,0h.47V12.1H15Zm1.76,0h.47V12.1H16.8Zm.88,0h.47V12.1h-.47Zm.88,0H19V12.1h-.47Zm.89,0h.46V12.1h-.46Zm.88,0h.53V12.1h-.53Zm.88,0h.53V12.1h-.53Zm.94,0h.47V12.1h-.47Zm.88,0h.47V12.1H23Zm.88,0h.47V12.1h-.47Zm.88,0h.47V12.1h-.47Zm.88,0h.47V12.1h-.47Zm1.76,0H28V12.1h-.53Zm.94,0h.47V12.1h-.47Zm.88,0h.47V12.1h-.47Zm.89,0h.47V12.1h-.47Zm.88,0h.47V12.1H31Zm.88,0h.47V12.1H31.9Zm.88,0h.47V12.1h-.47Zm.88,0h.53V12.1h-.53Zm.88,0h.53V12.1h-.53Zm.94,0H36V12.1h-.47Zm.88,0h.47V12.1h-.47Zm.88,0h.47V12.1h-.47Zm1.76,0h.48V12.1H39Zm.89,0h.53V12.1h-.53Zm.88,0h.53V12.1h-.53Zm.94,0h.47V12.1h-.47Zm.88,0h.47V12.1h-.47Zm.88,0h.47V12.1h-.47Zm.88,0h.47V12.1h-.47Zm.88,0h.47V12.1h-.47Zm.89,0h.46V12.1h-.46Zm.88,0h.52V12.1H47Zm1.82,0h.47V12.1h-.47Zm.88,0h.47V12.1H49.7Zm.88,0h.47V12.1h-.47Zm.88,0h.47V12.1h-.47Zm.88,0h.47V12.1h-.47Zm.88,0h.53V12.1h-.53Zm.88,0h.53V12.1H54.1Zm.94,0h.48V12.1H55Zm.88,0h.47V12.1h-.47Zm.89,0h.47V12.1h-.47ZM3.94,16.62V29.55H3.47V16.62Zm45.35,0V29.55h-.47V16.62Zm8,0V29.55h-.47V16.62Zm-.89,0V29.55h-.47V16.62Zm-.87,0V29.55H55V16.62Zm-.89,0V29.55H54.1V16.62Zm-.88,0V29.55h-.53V16.62Zm-.94,0V29.55h-.47V16.62Zm-.88,0V29.55h-.47V16.62Zm-.88,0V29.55h-.47V16.62Zm-.88,0V29.55H49.7V16.62Zm-10.69,0V29.55H39V16.62Zm8,0V29.55H47V16.62Zm-.94,0V29.55h-.46V16.62Zm-.88,0V29.55h-.47V16.62Zm-.88,0V29.55h-.47V16.62Zm-.88,0V29.55h-.47V16.62Zm-.88,0V29.55h-.47V16.62Zm-.88,0V29.55h-.47V16.62Zm-.88,0V29.55h-.53V16.62Zm-.88,0V29.55h-.53V16.62ZM28,16.62V29.55h-.53V16.62Zm9.75,0V29.55h-.47V16.62Zm-.88,0V29.55h-.47V16.62Zm-.88,0V29.55h-.47V16.62Zm-.88,0V29.55h-.53V16.62Zm-.88,0V29.55h-.53V16.62Zm-.94,0V29.55h-.47V16.62Zm-.88,0V29.55H31.9V16.62Zm-.88,0V29.55H31V16.62Zm-.88,0V29.55h-.47V16.62Zm-.89,0V29.55h-.47V16.62Zm-.88,0V29.55h-.47V16.62Zm-11.57,0V29.55H16.8V16.62Zm8.87,0V29.55h-.47V16.62Zm-.88,0V29.55h-.47V16.62Zm-.88,0V29.55h-.47V16.62Zm-.88,0V29.55H23V16.62Zm-.88,0V29.55h-.47V16.62Zm-.88,0V29.55h-.53V16.62Zm-.88,0V29.55h-.53V16.62Zm-.95,0V29.55h-.46V16.62Zm-.88,0V29.55h-.47V16.62Zm-.88,0V29.55h-.47V16.62Zm-8,0V29.55H9.69V16.62Zm5.35,0V29.55H15V16.62Zm-.88,0V29.55H14.1V16.62Zm-.88,0V29.55h-.53V16.62Zm-.94,0V29.55h-.47V16.62Zm-.88,0V29.55h-.48V16.62Zm-.89,0V29.55h-.47V16.62Zm-2.64,0V29.55H7.87V16.62Zm-.88,0V29.55H7V16.62Zm-.94,0V29.55H6.11V16.62Zm-.88,0V29.55H5.23V16.62Zm-.88,0V29.55H4.35V16.62ZM0,14.92H61.15v1.7H0Z"/>
</svg>