<svg xmlns="http://www.w3.org/2000/svg" viewBox="0 0 71.2 58.75">
    <path fill-rule="evenodd" clip-rule="evenodd" class="cls-1" d="M15.27,12.45H68.55a1,1,0,0,1,1,.94v27a1,1,0,0,1-1,.94H15.27a1,1,0,0,1-1-.94v-27a1,1,0,0,1,1-.94ZM.12,0h11.8A.21.21,0,0,1,12,.06V43.35h59a.13.13,0,0,1,.12.12v3.11a.13.13,0,0,1-.12.12H9.16a.12.12,0,0,1-.11-.12h0V3H.12A.13.13,0,0,1,0,2.88V.06A.21.21,0,0,1,.12,0Zm17,15.33h2.53a.06.06,0,0,1,.06.06V18c0,.05,0,.11-.06.11H17.15A.12.12,0,0,1,17,18V15.39a.17.17,0,0,1,.11-.06Zm6.88,0h2.52a.06.06,0,0,1,.06.06V18c0,.05,0,.11-.06.11H24a.13.13,0,0,1-.12-.11V15.39a.21.21,0,0,1,.12-.06Zm6.87,0h2.53l0,.06V18a.22.22,0,0,1,0,.11H30.9a.13.13,0,0,1-.12-.11V15.39a.21.21,0,0,1,.12-.06Zm6.87,0h2.47a.21.21,0,0,1,.12.06V18a.13.13,0,0,1-.12.11H37.77a.12.12,0,0,1-.11-.11V15.39a.17.17,0,0,1,.11-.06Zm6.82,0h2.52a.21.21,0,0,1,.12.06V18a.13.13,0,0,1-.12.11H44.59a.21.21,0,0,1-.06-.11V15.39l.06-.06Zm6.87,0H54a.21.21,0,0,1,.12.06V18a.13.13,0,0,1-.12.11H51.46c-.06,0-.06-.06-.06-.11V15.39a.06.06,0,0,1,.06-.06Zm6.87,0h2.53a.06.06,0,0,1,.06.06V18c0,.05,0,.11-.06.11H58.33c-.06,0-.06-.06-.06-.11V15.39a.06.06,0,0,1,.06-.06Zm6.88,0h2.52a.06.06,0,0,1,.06.06V18c0,.05,0,.11-.06.11H65.21a.13.13,0,0,1-.12-.11V15.39a.21.21,0,0,1,.12-.06ZM17.15,20.56h2.53a.06.06,0,0,1,.06.06v2.64c0,.06,0,.12-.06.12H17.15a.12.12,0,0,1-.11-.12V20.62a.17.17,0,0,1,.11-.06Zm6.88,0h2.52a.06.06,0,0,1,.06.06v2.64c0,.06,0,.12-.06.12H24a.13.13,0,0,1-.12-.12V20.62a.21.21,0,0,1,.12-.06Zm6.87,0h2.53l0,.06v2.64a.22.22,0,0,1,0,.12H30.9a.13.13,0,0,1-.12-.12V20.62a.21.21,0,0,1,.12-.06Zm6.87,0h2.47a.21.21,0,0,1,.12.06v2.64a.13.13,0,0,1-.12.12H37.77a.12.12,0,0,1-.11-.12V20.62a.17.17,0,0,1,.11-.06Zm6.82,0h2.52a.21.21,0,0,1,.12.06v2.64a.13.13,0,0,1-.12.12H44.59a.21.21,0,0,1-.06-.12V20.62l.06-.06Zm6.87,0H54a.21.21,0,0,1,.12.06v2.64a.13.13,0,0,1-.12.12H51.46c-.06,0-.06-.06-.06-.12V20.62a.06.06,0,0,1,.06-.06Zm6.87,0h2.53a.06.06,0,0,1,.06.06v2.64c0,.06,0,.12-.06.12H58.33c-.06,0-.06-.06-.06-.12V20.62a.06.06,0,0,1,.06-.06Zm6.88,0h2.52a.06.06,0,0,1,.06.06v2.64c0,.06,0,.12-.06.12H65.21a.13.13,0,0,1-.12-.12V20.62a.21.21,0,0,1,.12-.06ZM17.15,25.79h2.53a.06.06,0,0,1,.06.06v2.64c0,.06,0,.12-.06.12H17.15a.12.12,0,0,1-.11-.12V25.85a.17.17,0,0,1,.11-.06Zm6.88,0h2.52a.06.06,0,0,1,.06.06v2.64c0,.06,0,.12-.06.12H24a.13.13,0,0,1-.12-.12V25.85a.21.21,0,0,1,.12-.06Zm6.87,0h2.53l0,.06v2.64a.22.22,0,0,1,0,.12H30.9a.13.13,0,0,1-.12-.12V25.85a.21.21,0,0,1,.12-.06Zm6.87,0h2.47a.21.21,0,0,1,.12.06v2.64a.13.13,0,0,1-.12.12H37.77a.12.12,0,0,1-.11-.12V25.85a.17.17,0,0,1,.11-.06Zm6.82,0h2.52a.21.21,0,0,1,.12.06v2.64a.13.13,0,0,1-.12.12H44.59a.21.21,0,0,1-.06-.12V25.85l.06-.06Zm6.87,0H54a.21.21,0,0,1,.12.06v2.64a.13.13,0,0,1-.12.12H51.46c-.06,0-.06-.06-.06-.12V25.85a.06.06,0,0,1,.06-.06Zm6.87,0h2.53a.06.06,0,0,1,.06.06v2.64c0,.06,0,.12-.06.12H58.33c-.06,0-.06-.06-.06-.12V25.85a.06.06,0,0,1,.06-.06Zm6.88,0h2.52a.06.06,0,0,1,.06.06v2.64c0,.06,0,.12-.06.12H65.21a.13.13,0,0,1-.12-.12V25.85a.21.21,0,0,1,.12-.06ZM17.15,31h2.53c.06,0,.06.05.06.11v2.59c0,.06,0,.12-.06.12H17.15a.12.12,0,0,1-.11-.12V31.13a.11.11,0,0,1,.11-.11ZM24,31h2.52c.06,0,.06.05.06.11v2.59c0,.06,0,.12-.06.12H24a.13.13,0,0,1-.12-.12V31.13A.12.12,0,0,1,24,31Zm6.87,0h2.53a.18.18,0,0,1,0,.11v2.59a.22.22,0,0,1,0,.12H30.9a.13.13,0,0,1-.12-.12V31.13A.12.12,0,0,1,30.9,31Zm6.87,0h2.47a.12.12,0,0,1,.12.11v2.59a.13.13,0,0,1-.12.12H37.77a.12.12,0,0,1-.11-.12V31.13a.11.11,0,0,1,.11-.11Zm6.82,0h2.52a.12.12,0,0,1,.12.11v2.59a.13.13,0,0,1-.12.12H44.59a.21.21,0,0,1-.06-.12V31.13a.17.17,0,0,1,.06-.11Zm6.87,0H54a.12.12,0,0,1,.12.11v2.59a.13.13,0,0,1-.12.12H51.46c-.06,0-.06-.06-.06-.12V31.13c0-.06,0-.11.06-.11Zm6.87,0h2.53c.06,0,.06.05.06.11v2.59c0,.06,0,.12-.06.12H58.33c-.06,0-.06-.06-.06-.12V31.13c0-.06,0-.11.06-.11Zm6.88,0h2.52c.06,0,.06.05.06.11v2.59c0,.06,0,.12-.06.12H65.21a.13.13,0,0,1-.12-.12V31.13a.12.12,0,0,1,.12-.11ZM17.15,36.24h2.53c.06,0,.06.06.06.12V39c0,.06,0,.11-.06.11H17.15A.11.11,0,0,1,17,39V36.36a.12.12,0,0,1,.11-.12Zm6.88,0h2.52c.06,0,.06.06.06.12V39c0,.06,0,.11-.06.11H24a.12.12,0,0,1-.12-.11V36.36a.13.13,0,0,1,.12-.12Zm6.87,0h2.53a.22.22,0,0,1,0,.12V39a.18.18,0,0,1,0,.11H30.9a.12.12,0,0,1-.12-.11V36.36a.13.13,0,0,1,.12-.12Zm6.87,0h2.47a.13.13,0,0,1,.12.12V39a.12.12,0,0,1-.12.11H37.77a.11.11,0,0,1-.11-.11V36.36a.12.12,0,0,1,.11-.12Zm6.82,0h2.52a.13.13,0,0,1,.12.12V39a.12.12,0,0,1-.12.11H44.59a.17.17,0,0,1-.06-.11V36.36a.21.21,0,0,1,.06-.12Zm6.87,0H54a.13.13,0,0,1,.12.12V39a.12.12,0,0,1-.12.11H51.46c-.06,0-.06-.05-.06-.11V36.36c0-.06,0-.12.06-.12Zm6.87,0h2.53c.06,0,.06.06.06.12V39c0,.06,0,.11-.06.11H58.33c-.06,0-.06-.05-.06-.11V36.36c0-.06,0-.12.06-.12Zm6.88,0h2.52c.06,0,.06.06.06.12V39c0,.06,0,.11-.06.11H65.21a.12.12,0,0,1-.12-.11V36.36a.13.13,0,0,1,.12-.12ZM20.79,48.11a5.32,5.32,0,1,1-5.28,5.29,5.36,5.36,0,0,1,5.28-5.29Zm40.6,0A5.32,5.32,0,1,1,56.1,53.4a5.35,5.35,0,0,1,5.29-5.29Zm0,3.18a2.14,2.14,0,1,1-2.12,2.11,2.11,2.11,0,0,1,2.12-2.11Zm-40.6,0a2.14,2.14,0,1,1-2.11,2.11,2.11,2.11,0,0,1,2.11-2.11Z"/>
</svg>