<svg xmlns="http://www.w3.org/2000/svg" viewBox="0 0 61.51 62.06">
    <path fill-rule="evenodd" clip-rule="evenodd" class="cls-1" d="M1.41,28.87V60a2.1,2.1,0,0,0,2.12,2.06H58A2.1,2.1,0,0,0,60.1,60V28.87a3.09,3.09,0,0,1-.77.06H2.12a2.84,2.84,0,0,1-.71-.06Zm6.7,1.18h0a1.2,1.2,0,0,1,1.23,1.23v3.93a1.21,1.21,0,0,1-1.23,1.24h0a1.24,1.24,0,0,1-1.23-1.24V31.28a1.23,1.23,0,0,1,1.23-1.23Zm7.52,0h0a1.24,1.24,0,0,1,1.23,1.23v3.93a1.24,1.24,0,0,1-1.23,1.24h0a1.21,1.21,0,0,1-1.24-1.24V31.28a1.2,1.2,0,0,1,1.24-1.23Zm7.52,0h0a1.24,1.24,0,0,1,1.23,1.23v3.93a1.24,1.24,0,0,1-1.23,1.24h0a1.21,1.21,0,0,1-1.24-1.24V31.28a1.2,1.2,0,0,1,1.24-1.23Zm7.52,0h0a1.24,1.24,0,0,1,1.23,1.23v3.93a1.24,1.24,0,0,1-1.23,1.24h0a1.21,1.21,0,0,1-1.24-1.24V31.28a1.2,1.2,0,0,1,1.24-1.23Zm7.52,0h0a1.19,1.19,0,0,1,1.17,1.23v3.93a1.19,1.19,0,0,1-1.17,1.24h0A1.21,1.21,0,0,1,37,35.21V31.28a1.2,1.2,0,0,1,1.24-1.23Zm7.46,0h0a1.2,1.2,0,0,1,1.23,1.23v3.93a1.21,1.21,0,0,1-1.23,1.24h0a1.25,1.25,0,0,1-1.24-1.24V31.28a1.24,1.24,0,0,1,1.24-1.23Zm7.52,0h0a1.2,1.2,0,0,1,1.23,1.23v3.93a1.21,1.21,0,0,1-1.23,1.24h0a1.25,1.25,0,0,1-1.24-1.24V31.28a1.24,1.24,0,0,1,1.24-1.23ZM8.11,39.91h0a1.24,1.24,0,0,1,1.23,1.24v4a1.24,1.24,0,0,1-1.23,1.24h0a1.28,1.28,0,0,1-1.23-1.24v-4a1.28,1.28,0,0,1,1.23-1.24Zm7.52,0h0a1.29,1.29,0,0,1,1.23,1.24v4a1.29,1.29,0,0,1-1.23,1.24h0a1.25,1.25,0,0,1-1.24-1.24v-4a1.25,1.25,0,0,1,1.24-1.24Zm7.52,0h0a1.29,1.29,0,0,1,1.23,1.24v4a1.29,1.29,0,0,1-1.23,1.24h0a1.25,1.25,0,0,1-1.24-1.24v-4a1.25,1.25,0,0,1,1.24-1.24Zm7.52,0h0a1.29,1.29,0,0,1,1.23,1.24v4a1.29,1.29,0,0,1-1.23,1.24h0a1.25,1.25,0,0,1-1.24-1.24v-4a1.25,1.25,0,0,1,1.24-1.24Zm7.52,0h0a1.23,1.23,0,0,1,1.17,1.24v4a1.23,1.23,0,0,1-1.17,1.24h0A1.25,1.25,0,0,1,37,45.14v-4a1.25,1.25,0,0,1,1.24-1.24Zm7.46,0h0a1.24,1.24,0,0,1,1.23,1.24v4a1.24,1.24,0,0,1-1.23,1.24h0a1.29,1.29,0,0,1-1.24-1.24v-4a1.29,1.29,0,0,1,1.24-1.24Zm7.52,0h0a1.24,1.24,0,0,1,1.23,1.24v4a1.24,1.24,0,0,1-1.23,1.24h0a1.29,1.29,0,0,1-1.24-1.24v-4a1.29,1.29,0,0,1,1.24-1.24ZM8.11,49.84h0a1.2,1.2,0,0,1,1.23,1.23V55a1.21,1.21,0,0,1-1.23,1.24h0A1.24,1.24,0,0,1,6.88,55V51.07a1.24,1.24,0,0,1,1.23-1.23Zm7.52,0h0a1.24,1.24,0,0,1,1.23,1.23V55a1.24,1.24,0,0,1-1.23,1.24h0A1.21,1.21,0,0,1,14.39,55V51.07a1.21,1.21,0,0,1,1.24-1.23Zm7.52,0h0a1.24,1.24,0,0,1,1.23,1.23V55a1.24,1.24,0,0,1-1.23,1.24h0A1.21,1.21,0,0,1,21.91,55V51.07a1.21,1.21,0,0,1,1.24-1.23Zm7.52,0h0a1.24,1.24,0,0,1,1.23,1.23V55a1.24,1.24,0,0,1-1.23,1.24h0A1.21,1.21,0,0,1,29.43,55V51.07a1.21,1.21,0,0,1,1.24-1.23Zm7.52,0h0a1.19,1.19,0,0,1,1.17,1.23V55a1.19,1.19,0,0,1-1.17,1.24h0A1.21,1.21,0,0,1,37,55V51.07a1.21,1.21,0,0,1,1.24-1.23Zm7.46,0h0a1.2,1.2,0,0,1,1.23,1.23V55a1.21,1.21,0,0,1-1.23,1.24h0A1.25,1.25,0,0,1,44.41,55V51.07a1.24,1.24,0,0,1,1.24-1.23Zm7.52,0h0a1.2,1.2,0,0,1,1.23,1.23V55a1.21,1.21,0,0,1-1.23,1.24h0A1.25,1.25,0,0,1,51.93,55V51.07a1.24,1.24,0,0,1,1.24-1.23ZM2.12,18.59H14.57l-.94,1.58a2.83,2.83,0,0,0,1,3.82l1.82,1.06A2.78,2.78,0,0,0,20.27,24l3.17-5.4H38.07L41.18,24a2.87,2.87,0,0,0,3.88,1.06L46.82,24a2.8,2.8,0,0,0,1.06-3.82l-.94-1.58H59.33a2.16,2.16,0,0,1,2.18,2.12v4.34a2.16,2.16,0,0,1-2.18,2.12H2.12A2.15,2.15,0,0,1,0,25.05V20.71a2.15,2.15,0,0,1,2.12-2.12Zm44.17,2.47L34.42.5A1,1,0,0,0,33.07.14L31.25,1.2a1,1,0,0,0-.52.82v.06h0a.65.65,0,0,0,.17.47L42.77,23.11a1,1,0,0,0,1.41.41l1.76-1.05a1,1,0,0,0,.35-1.41ZM30.73,2v.06h0a.62.62,0,0,1-.12.47L18.74,23.11a1,1,0,0,1-1.41.41l-1.76-1.05a1.06,1.06,0,0,1-.41-1.41L27,.5A1.06,1.06,0,0,1,28.43.14L30.26,1.2a1,1,0,0,1,.47.82Z"/>
</svg>