<?xml version="1.0" encoding="utf-8"?>
<!-- Svg Vector Icons : http://www.onlinewebfonts.com/icon -->
<!DOCTYPE svg PUBLIC "-//W3C//DTD SVG 1.1//EN" "http://www.w3.org/Graphics/SVG/1.1/DTD/svg11.dtd">
<svg version="1.1" xmlns="http://www.w3.org/2000/svg" xmlns:xlink="http://www.w3.org/1999/xlink" x="0px" y="0px" viewBox="0 0 1000 1000" enable-background="new 0 0 1000 1000" xml:space="preserve">
<metadata> Svg Vector Icons : http://www.onlinewebfonts.com/icon </metadata>
<g><path d="M525.2,707.5c-16-15.3-34.6-27.1-54.9-34.4l-42.7-167.9l507.9-143.6L990,576.1L525.2,707.5z M363.6,252.9l338.5-95.7l54.3,214.5L418,467.3L363.6,252.9z M378.7,670c-9.4,2.6-18.3,6.4-26.7,10.6L202.7,92.5h-56.2c-5.6,12.4-17.5,21.2-31.4,21.2H45.1c-19.3,0-35.1-16.6-35.1-37c0-20.5,15.7-37,35.1-37h70.2c11.7,0,21.6,6.5,28,15.9H251v1.8l1.5-0.5L407,665C397.6,665.8,388.2,667.3,378.7,670z M387.8,705.6c65.4-18.4,132.7,22.5,150.2,91.6c17.6,69.2-21.3,140.2-86.7,158.6c-65.4,18.5-132.7-22.5-150.2-91.5C283.6,795.3,322.4,724.1,387.8,705.6z M369.4,847.3c7.5,29.7,36.3,47.2,64.4,39.3c28-7.9,44.7-38.5,37.2-68c-7.5-29.7-36.3-47.2-64.4-39.2C378.5,787.3,361.9,817.7,369.4,847.3z M985.5,701.8l-409,115.6c-0.8-9.9-2-19.8-4.6-29.7c-2.5-10.1-6.1-19.3-10.2-28.4l407-115.1L985.5,701.8z"/></g>
</svg>