<svg xmlns="http://www.w3.org/2000/svg" viewBox="0 0 42.18 62.09">
    <path fill-rule="evenodd" clip-rule="evenodd" class="cls-1" d="M.83,23.56,20.44,40.48,11.16,22C10,22.21,1.94,23.15.83,23.56ZM31.9,21.27a6,6,0,0,1,3.94-1.35,6.18,6.18,0,0,1,5.58,3.4L31.19,21.68l.06-.06H31C32.84,12.51,29.9,4.88,21.85.41v21A6.51,6.51,0,0,1,26,19.92a6.26,6.26,0,0,1,4.34,1.7H21.09V0C12.46,4.41,9.28,12.22,11.16,21.62h-.23l.06.06c-1.53.17-8.41.94-10.11,1.47a6.12,6.12,0,0,1,5.46-3.23,6,6,0,0,1,3.94,1.35C8.7,12.34,11.58,4.7,19.39.06,8.58.88,0,9.28,0,19.56A18.24,18.24,0,0,0,.53,24L20.8,41.3H12.28a1.58,1.58,0,0,0-1.59,1.58V60.51a1.58,1.58,0,0,0,1.59,1.58H29.9a1.58,1.58,0,0,0,1.59-1.58V42.88A1.58,1.58,0,0,0,29.9,41.3H21.38L41.65,24a18.24,18.24,0,0,0,.53-4.41C42.18,9.28,33.66.88,22.8.06c7.92,4.7,10.69,12.4,9.1,21.21Zm-20.09.35a6.29,6.29,0,0,1,4.4-1.7,6.25,6.25,0,0,1,4.35,1.7Zm9.1,18.86V22H11.63ZM21.33,22V40.48L30.61,22ZM31,22,21.74,40.48,41.18,23.67Zm-2.7,38.54h.29A1.42,1.42,0,0,0,30,59.16V44.23a1.36,1.36,0,0,0-1.35-1.35h-.29ZM25.26,42.88V60.57h2.53V42.88Zm-10.39,0V60.57h2.46V42.88Zm5.16,0V60.57h2.53V42.88Zm-7.75,1.35V59.16a1.38,1.38,0,0,0,1.35,1.41h.71V42.88h-.71a1.33,1.33,0,0,0-1.35,1.35Zm5.64,16.34H19.5V42.88H17.92Zm5.17,0h1.64V42.88H23.09ZM28.61,42.3a2,2,0,0,1,1.94,1.93V59.16a1.92,1.92,0,0,1-1.94,1.94h-15a1.92,1.92,0,0,1-1.94-1.94V44.23a2,2,0,0,1,1.94-1.93Z"/>
</svg>