<svg xmlns="http://www.w3.org/2000/svg" viewBox="0 0 66.79 45.82">
    <path fill-rule="evenodd" clip-rule="evenodd" class="cls-1" d="M58.92.17a7.57,7.57,0,0,1,5.93,7.35v8.05H62.5v-8A9.32,9.32,0,0,0,58.92.17ZM51.75,22a1.12,1.12,0,0,1,1.12,1.12A1.12,1.12,0,1,1,51.75,22Zm0-2.47a3.56,3.56,0,1,1-3.52,3.59,3.56,3.56,0,0,1,3.52-3.59Zm0,.65a2.91,2.91,0,1,1-2.88,2.94,2.89,2.89,0,0,1,2.88-2.94Zm-4-2.82H65a1.83,1.83,0,0,1,1.82,1.82v7.58A1.83,1.83,0,0,1,65,28.55H47.7a1.84,1.84,0,0,1-1.88-1.82V19.15a1.84,1.84,0,0,1,1.88-1.82Zm4,.41a5.32,5.32,0,1,1-5.34,5.35,5.33,5.33,0,0,1,5.34-5.35ZM7.46,0H53.22a7.52,7.52,0,0,1,7.46,7.52v8.05h-13a3.6,3.6,0,0,0-3.64,3.58v7.58a3.6,3.6,0,0,0,3.64,3.58h13v8.05a7.47,7.47,0,0,1-7.46,7.46H7.46A7.47,7.47,0,0,1,0,38.36V7.52A7.52,7.52,0,0,1,7.46,0Zm55,30.31h2.35v8.05a7.55,7.55,0,0,1-5.93,7.34,9.29,9.29,0,0,0,3.58-7.34Z"/>
</svg>